<svg width="324" height="376" viewBox="0 0 324 376" fill="none" xmlns="http://www.w3.org/2000/svg">
<path d="M298.558 135.559H312L188.141 6.99998L47 135.559H61.4022M298.558 135.559V237M298.558 135.559H214.545M61.4022 237V135.559M61.4022 135.559H142.054" stroke="#999999" stroke-width="10"/>
<mask id="path-2-inside-1_4_81" fill="white">
<path fill-rule="evenodd" clip-rule="evenodd" d="M78.3803 364.089C75.4585 364.501 74.2464 364.42 73.0657 363.734C71.7831 362.989 71.7214 362.215 72.8392 360.901C74.421 359.042 75.1843 358.786 93.3011 354.02C169.956 333.856 222.009 315.307 226.125 306.689C227.816 303.149 221.773 300.805 206.734 299.166C187.125 297.029 166.751 296.836 113.056 298.277C71.7692 299.385 50.8743 298.988 35.8049 296.811C19.5161 294.458 11.1237 290.037 10.4344 283.446C9.92028 278.524 12.3168 273.703 18.278 267.674C23.2393 262.655 30.5316 257.701 40.9796 252.249C47.5747 248.808 76.0785 233.876 83.7189 229.86C86.9551 228.159 91.6824 225.707 94.2239 224.412C96.7655 223.117 100.719 221.043 103.01 219.804C105.524 218.444 108.014 217.294 109.294 216.904C115.309 215.066 120.405 216.827 117.483 219.732C116.009 221.198 108.059 225.374 106.904 225.29C106.297 225.246 106.178 225.274 106.488 225.387C107.009 225.578 105.711 226.464 104.913 226.462C104.603 226.461 104.2 226.62 104.019 226.816C103.795 227.056 103.922 227.052 104.409 226.806C104.881 226.566 104.961 226.561 104.639 226.789C103.805 227.38 99.0393 229.925 86.2532 236.606C79.4949 240.138 69.7054 245.264 64.4989 247.999C59.2924 250.733 53.0718 253.985 50.6754 255.224C38.8127 261.358 32.3076 266.223 28.178 272.048C22.0268 280.724 26.4682 286.513 41.3454 289.21C56.3491 291.931 73.3815 292.28 125.986 290.945C169.508 289.84 188.703 289.93 207.055 291.322C224.987 292.683 235.986 295.143 239.76 298.636C241.345 300.104 241.907 302.889 241.024 304.901C236.337 315.58 198.869 330.979 130.014 350.524C107.432 356.934 82.2981 363.537 78.3803 364.089ZM96.0312 224.502C95.5157 224.512 95.2323 224.371 95.4017 224.188C95.5913 223.985 95.4733 223.982 95.0956 224.182C94.6636 224.411 94.6698 224.549 95.1154 224.644C95.4646 224.719 95.5933 224.894 95.4016 225.032C95.2098 225.171 95.4841 225.104 96.0112 224.884C96.8773 224.522 96.8792 224.485 96.0312 224.502Z"/>
</mask>
<path fill-rule="evenodd" clip-rule="evenodd" d="M78.3803 364.089C75.4585 364.501 74.2464 364.42 73.0657 363.734C71.7831 362.989 71.7214 362.215 72.8392 360.901C74.421 359.042 75.1843 358.786 93.3011 354.02C169.956 333.856 222.009 315.307 226.125 306.689C227.816 303.149 221.773 300.805 206.734 299.166C187.125 297.029 166.751 296.836 113.056 298.277C71.7692 299.385 50.8743 298.988 35.8049 296.811C19.5161 294.458 11.1237 290.037 10.4344 283.446C9.92028 278.524 12.3168 273.703 18.278 267.674C23.2393 262.655 30.5316 257.701 40.9796 252.249C47.5747 248.808 76.0785 233.876 83.7189 229.86C86.9551 228.159 91.6824 225.707 94.2239 224.412C96.7655 223.117 100.719 221.043 103.01 219.804C105.524 218.444 108.014 217.294 109.294 216.904C115.309 215.066 120.405 216.827 117.483 219.732C116.009 221.198 108.059 225.374 106.904 225.29C106.297 225.246 106.178 225.274 106.488 225.387C107.009 225.578 105.711 226.464 104.913 226.462C104.603 226.461 104.2 226.62 104.019 226.816C103.795 227.056 103.922 227.052 104.409 226.806C104.881 226.566 104.961 226.561 104.639 226.789C103.805 227.38 99.0393 229.925 86.2532 236.606C79.4949 240.138 69.7054 245.264 64.4989 247.999C59.2924 250.733 53.0718 253.985 50.6754 255.224C38.8127 261.358 32.3076 266.223 28.178 272.048C22.0268 280.724 26.4682 286.513 41.3454 289.21C56.3491 291.931 73.3815 292.28 125.986 290.945C169.508 289.84 188.703 289.93 207.055 291.322C224.987 292.683 235.986 295.143 239.76 298.636C241.345 300.104 241.907 302.889 241.024 304.901C236.337 315.58 198.869 330.979 130.014 350.524C107.432 356.934 82.2981 363.537 78.3803 364.089ZM96.0312 224.502C95.5157 224.512 95.2323 224.371 95.4017 224.188C95.5913 223.985 95.4733 223.982 95.0956 224.182C94.6636 224.411 94.6698 224.549 95.1154 224.644C95.4646 224.719 95.5933 224.894 95.4016 225.032C95.2098 225.171 95.4841 225.104 96.0112 224.884C96.8773 224.522 96.8792 224.485 96.0312 224.502Z" fill="#EA7889"/>
<path d="M78.3803 364.089L78.5198 365.08L78.5198 365.08L78.3803 364.089ZM73.0657 363.734L73.5681 362.869L73.5682 362.869L73.0657 363.734ZM72.8392 360.901L73.6008 361.549L73.6008 361.55L72.8392 360.901ZM93.3011 354.02L93.5555 354.987L93.5555 354.987L93.3011 354.02ZM226.125 306.689L225.222 306.258L225.222 306.258L226.125 306.689ZM206.734 299.166L206.625 300.16L206.625 300.16L206.734 299.166ZM113.056 298.277L113.083 299.276L113.056 298.277ZM35.8049 296.811L35.9479 295.822L35.9479 295.822L35.8049 296.811ZM10.4344 283.446L9.43983 283.55L9.43981 283.55L10.4344 283.446ZM18.278 267.674L18.9892 268.377L18.9891 268.377L18.278 267.674ZM40.9796 252.249L40.517 251.363L40.517 251.362L40.9796 252.249ZM83.7189 229.86L84.1842 230.745L84.1842 230.745L83.7189 229.86ZM103.01 219.804L103.485 220.684L103.485 220.684L103.01 219.804ZM109.294 216.904L109.586 217.86L109.586 217.86L109.294 216.904ZM117.483 219.732L118.189 220.441L118.188 220.442L117.483 219.732ZM106.904 225.29L106.976 224.293L106.976 224.293L106.904 225.29ZM106.488 225.387L106.144 226.326L106.144 226.326L106.488 225.387ZM104.913 226.462L104.91 227.462L104.91 227.462L104.913 226.462ZM104.019 226.816L104.751 227.497L104.751 227.497L104.019 226.816ZM104.409 226.806L103.957 225.914L103.957 225.913L104.409 226.806ZM104.639 226.789L104.061 225.973L104.061 225.973L104.639 226.789ZM86.2532 236.606L85.7901 235.72L85.7901 235.72L86.2532 236.606ZM64.4989 247.999L64.0339 247.113L64.0339 247.113L64.4989 247.999ZM50.6754 255.224L51.1348 256.112L51.1348 256.112L50.6754 255.224ZM28.178 272.048L28.9938 272.626L28.9938 272.626L28.178 272.048ZM41.3454 289.21L41.167 290.194L41.167 290.194L41.3454 289.21ZM125.986 290.945L125.96 289.945L125.96 289.945L125.986 290.945ZM207.055 291.322L207.131 290.325L207.055 291.322ZM239.76 298.636L240.439 297.902L240.439 297.903L239.76 298.636ZM241.024 304.901L240.108 304.5L240.108 304.5L241.024 304.901ZM130.014 350.524L130.287 351.486L130.287 351.486L130.014 350.524ZM96.0312 224.502L96.0513 225.501L96.0508 225.501L96.0312 224.502ZM95.4017 224.188L94.6692 223.508L94.6698 223.507L95.4017 224.188ZM95.0956 224.182L95.5638 225.066L95.5631 225.066L95.0956 224.182ZM95.1154 224.644L94.9061 225.622L94.9058 225.622L95.1154 224.644ZM96.0112 224.884L95.6253 223.961L95.6254 223.961L96.0112 224.884ZM78.5198 365.08C75.5845 365.493 74.0635 365.471 72.5632 364.599L73.5682 362.869C74.4293 363.37 75.3325 363.509 78.2407 363.099L78.5198 365.08ZM72.5633 364.599C71.8507 364.185 71.1325 363.574 71.0555 362.611C70.9849 361.727 71.5018 360.93 72.0776 360.253L73.6008 361.55C73.3503 361.844 73.202 362.067 73.1212 362.232C73.0822 362.312 73.0639 362.369 73.0556 362.404C73.0516 362.422 73.05 362.434 73.0495 362.441C73.0489 362.448 73.0491 362.451 73.0491 362.451C73.0491 362.451 73.049 362.45 73.0487 362.449C73.0483 362.447 73.0483 362.448 73.0495 362.45C73.0517 362.456 73.0619 362.477 73.093 362.513C73.1609 362.593 73.3004 362.714 73.5681 362.869L72.5633 364.599ZM72.0775 360.253C72.4999 359.757 72.9222 359.303 73.6268 358.864C74.3035 358.441 75.2009 358.057 76.5508 357.603C79.2446 356.697 84.0082 355.43 93.0467 353.053L93.5555 354.987C84.4772 357.375 79.8008 358.62 77.1883 359.498C75.885 359.937 75.1627 360.263 74.6853 360.56C74.2357 360.841 73.9694 361.116 73.6008 361.549L72.0775 360.253ZM93.0467 353.053C131.359 342.975 163.507 333.305 186.579 325.083C198.119 320.971 207.367 317.229 213.974 313.987C217.279 312.365 219.899 310.88 221.808 309.55C223.754 308.193 224.827 307.086 225.222 306.258L227.027 307.12C226.393 308.447 224.94 309.804 222.952 311.191C220.926 312.603 218.206 314.138 214.855 315.783C208.149 319.073 198.821 322.844 187.251 326.967C164.105 335.215 131.898 344.901 93.5555 354.987L93.0467 353.053ZM225.222 306.258C225.374 305.94 225.413 305.693 225.397 305.497C225.382 305.306 225.309 305.096 225.126 304.855C224.733 304.336 223.879 303.743 222.341 303.147C219.295 301.965 214.14 300.979 206.625 300.16L206.842 298.172C214.367 298.992 219.753 299.997 223.065 301.282C224.706 301.919 225.986 302.678 226.72 303.646C227.101 304.149 227.34 304.715 227.391 305.336C227.44 305.953 227.298 306.553 227.027 307.12L225.222 306.258ZM206.625 300.16C187.093 298.032 166.785 297.835 113.083 299.276L113.029 297.277C166.718 295.836 187.156 296.027 206.842 298.172L206.625 300.16ZM113.083 299.276C71.804 300.384 50.8277 299.992 35.6619 297.801L35.9479 295.822C50.921 297.985 71.7344 298.385 113.029 297.277L113.083 299.276ZM35.6619 297.801C27.4745 296.618 21.1728 294.904 16.8038 292.603C12.4266 290.297 9.83286 287.308 9.43983 283.55L11.429 283.342C11.7253 286.175 13.6724 288.693 17.7359 290.833C21.8076 292.978 27.8465 294.651 35.9479 295.822L35.6619 297.801ZM9.43981 283.55C8.87816 278.172 11.5398 273.067 17.5669 266.971L18.9891 268.377C13.0939 274.34 10.9624 278.875 11.429 283.342L9.43981 283.55ZM17.5669 266.971C22.6335 261.846 30.0299 256.834 40.517 251.363L41.4422 253.136C31.0332 258.567 23.845 263.465 18.9892 268.377L17.5669 266.971ZM40.517 251.362C47.1111 247.922 75.614 232.991 83.2537 228.975L84.1842 230.745C76.5431 234.762 48.0383 249.694 41.4421 253.136L40.517 251.362ZM83.2537 228.975C86.4926 227.272 91.2237 224.819 93.7698 223.521L94.678 225.303C92.141 226.596 87.4176 229.046 84.1842 230.745L83.2537 228.975ZM93.7698 223.521C96.3048 222.229 100.251 220.16 102.534 218.925L103.485 220.684C101.187 221.927 97.2261 224.004 94.678 225.303L93.7698 223.521ZM102.534 218.925C105.056 217.56 107.621 216.369 109.002 215.947L109.586 217.86C108.408 218.22 105.991 219.328 103.485 220.684L102.534 218.925ZM109.002 215.947C112.131 214.992 115.139 214.928 117.066 215.594C118.003 215.918 118.942 216.51 119.241 217.523C119.556 218.591 119.023 219.612 118.189 220.441L116.778 219.023C117.405 218.4 117.33 218.112 117.323 218.089C117.3 218.013 117.138 217.735 116.413 217.485C115.02 217.003 112.472 216.978 109.586 217.86L109.002 215.947ZM118.188 220.442C117.726 220.901 116.857 221.491 115.894 222.083C114.901 222.693 113.713 223.361 112.539 223.978C111.367 224.594 110.195 225.166 109.234 225.581C108.755 225.788 108.314 225.963 107.943 226.085C107.758 226.146 107.576 226.199 107.408 226.235C107.255 226.268 107.046 226.303 106.831 226.288L106.976 224.293C106.906 224.288 106.894 224.3 106.986 224.28C107.062 224.264 107.171 224.234 107.317 224.186C107.608 224.09 107.988 223.941 108.44 223.746C109.341 223.356 110.465 222.808 111.609 222.207C112.752 221.607 113.9 220.961 114.848 220.379C115.826 219.778 116.503 219.297 116.778 219.023L118.188 220.442ZM106.831 226.288C106.686 226.277 106.585 226.272 106.519 226.271C106.416 226.269 106.474 226.278 106.579 226.254C106.613 226.246 106.701 226.224 106.804 226.168C106.893 226.121 107.129 225.977 107.253 225.663C107.398 225.299 107.291 224.975 107.188 224.8C107.098 224.647 106.99 224.559 106.952 224.53C106.904 224.492 106.863 224.469 106.846 224.459C106.826 224.448 106.812 224.441 106.808 224.439C106.801 224.436 106.806 224.439 106.832 224.448L106.144 226.326C106.092 226.307 106.033 226.284 105.976 226.258C105.933 226.238 105.828 226.189 105.722 226.106C105.673 226.068 105.557 225.972 105.462 225.812C105.355 225.628 105.247 225.298 105.394 224.927C105.52 224.607 105.762 224.457 105.861 224.404C105.974 224.344 106.075 224.317 106.126 224.306C106.298 224.266 106.48 224.269 106.56 224.271C106.677 224.273 106.818 224.281 106.976 224.293L106.831 226.288ZM106.832 224.448C107.066 224.534 107.423 224.747 107.56 225.199C107.685 225.613 107.539 225.958 107.449 226.121C107.271 226.442 106.971 226.678 106.759 226.823C106.315 227.126 105.592 227.464 104.91 227.462L104.915 225.462C104.948 225.462 105.052 225.448 105.214 225.387C105.367 225.329 105.518 225.249 105.631 225.171C105.779 225.07 105.755 225.05 105.699 225.151C105.67 225.204 105.546 225.448 105.645 225.777C105.756 226.145 106.04 226.288 106.144 226.326L106.832 224.448ZM104.91 227.462C104.915 227.462 104.904 227.462 104.875 227.468C104.848 227.473 104.817 227.483 104.785 227.495C104.754 227.508 104.731 227.52 104.72 227.527C104.705 227.536 104.721 227.529 104.751 227.497L103.286 226.135C103.514 225.889 103.808 225.731 104.05 225.635C104.3 225.536 104.605 225.461 104.916 225.462L104.91 227.462ZM104.751 227.497C104.736 227.512 104.738 227.512 104.749 227.498C104.751 227.495 104.802 227.43 104.845 227.323C104.865 227.273 105.04 226.84 104.732 226.405C104.428 225.977 103.97 225.992 103.922 225.994C103.809 225.996 103.734 226.02 103.731 226.021C103.715 226.026 103.714 226.027 103.735 226.019C103.775 226.002 103.846 225.97 103.957 225.914L104.861 227.698C104.728 227.765 104.601 227.825 104.488 227.871C104.422 227.898 104.21 227.987 103.973 227.993C103.893 227.995 103.413 228.004 103.1 227.561C102.781 227.111 102.957 226.656 102.989 226.577C103.079 226.353 103.239 226.185 103.286 226.134L104.751 227.497ZM103.957 225.913C104.081 225.851 104.192 225.797 104.283 225.756C104.328 225.736 104.38 225.714 104.433 225.695C104.454 225.688 104.586 225.637 104.748 225.625C104.798 225.621 104.887 225.618 104.995 225.636C105.097 225.653 105.291 225.702 105.479 225.861C105.695 226.045 105.811 226.299 105.83 226.552C105.847 226.768 105.789 226.935 105.755 227.016C105.69 227.173 105.599 227.275 105.576 227.302C105.538 227.345 105.503 227.379 105.48 227.4C105.399 227.473 105.299 227.547 105.218 227.604L104.061 225.973C104.14 225.916 104.15 225.905 104.131 225.923C104.123 225.93 104.1 225.952 104.071 225.984C104.057 226.001 103.972 226.095 103.909 226.246C103.877 226.323 103.82 226.487 103.836 226.701C103.855 226.952 103.97 227.204 104.185 227.386C104.37 227.544 104.563 227.591 104.661 227.608C104.766 227.626 104.85 227.623 104.895 227.619C104.985 227.613 105.05 227.595 105.068 227.59C105.094 227.583 105.111 227.577 105.116 227.575C105.125 227.572 105.12 227.573 105.096 227.584C105.05 227.604 104.973 227.641 104.861 227.698L103.957 225.913ZM105.218 227.604C104.735 227.947 103.259 228.769 100.399 230.296C97.5009 231.844 93.1094 234.152 86.7163 237.492L85.7901 235.72C92.1832 232.379 96.5675 230.075 99.4571 228.532C102.385 226.968 103.709 226.222 104.061 225.973L105.218 227.604ZM86.7163 237.492C79.9584 241.024 70.1696 246.15 64.9639 248.884L64.0339 247.113C69.2412 244.378 79.0313 239.252 85.7901 235.72L86.7163 237.492ZM64.9639 248.884C59.7572 251.619 53.5342 254.871 51.1348 256.112L50.2161 254.336C52.6095 253.098 58.8277 249.848 64.0339 247.113L64.9639 248.884ZM51.1348 256.112C39.3108 262.227 32.9815 267.001 28.9938 272.626L27.3623 271.469C31.6336 265.444 38.3147 260.49 50.2161 254.336L51.1348 256.112ZM28.9938 272.626C27.5113 274.717 26.7305 276.548 26.5412 278.129C26.3559 279.676 26.7286 281.036 27.6694 282.262C28.6312 283.516 30.2247 284.676 32.5482 285.695C34.8658 286.711 37.8514 287.56 41.5238 288.226L41.167 290.194C37.4008 289.511 34.2523 288.626 31.7451 287.526C29.2439 286.43 27.322 285.095 26.0827 283.48C24.8224 281.837 24.3083 279.954 24.5554 277.891C24.7984 275.862 25.7691 273.716 27.3623 271.469L28.9938 272.626ZM41.5238 288.226C56.4063 290.925 73.3279 291.281 125.96 289.945L126.011 291.944C73.4351 293.279 56.2919 292.936 41.167 290.194L41.5238 288.226ZM125.96 289.945C169.483 288.841 188.724 288.928 207.131 290.325L206.98 292.319C188.683 290.931 169.532 290.84 126.011 291.944L125.96 289.945ZM207.131 290.325C216.12 291.007 223.406 291.967 228.935 293.204C234.411 294.428 238.34 295.96 240.439 297.902L239.081 299.37C237.406 297.82 233.949 296.374 228.499 295.155C223.102 293.949 215.922 292.998 206.98 292.319L207.131 290.325ZM240.439 297.903C241.414 298.805 242.036 300.07 242.298 301.367C242.559 302.664 242.477 304.078 241.939 305.303L240.108 304.5C240.453 303.713 240.532 302.728 240.337 301.762C240.142 300.797 239.691 299.936 239.08 299.37L240.439 297.903ZM241.939 305.303C240.635 308.275 237.175 311.376 231.911 314.637C226.597 317.929 219.266 321.489 209.962 325.313C191.351 332.962 164.728 341.71 130.287 351.486L129.741 349.562C164.155 339.793 190.694 331.069 209.202 323.463C218.458 319.659 225.676 316.146 230.858 312.936C236.089 309.696 239.069 306.867 240.108 304.5L241.939 305.303ZM130.287 351.486C118.99 354.693 107.055 357.948 97.4521 360.471C87.8905 362.983 80.5526 364.793 78.5198 365.08L78.2407 363.099C80.1257 362.834 87.3136 361.066 96.9439 358.536C106.533 356.017 118.456 352.765 129.741 349.562L130.287 351.486ZM96.0508 225.501C95.7421 225.507 95.3466 225.478 95.0142 225.312C94.8594 225.235 94.5166 225.028 94.3929 224.584C94.2517 224.078 94.5016 223.688 94.6692 223.508L96.1343 224.869C96.2172 224.78 96.4389 224.475 96.3193 224.047C96.2172 223.681 95.9457 223.542 95.9051 223.522C95.8009 223.47 95.8049 223.506 96.0117 223.502L96.0508 225.501ZM94.6698 223.507C94.7201 223.453 94.6185 223.542 94.5512 223.721C94.5243 223.792 94.3847 224.185 94.6509 224.592C94.9247 225.01 95.3543 225.032 95.4418 225.034C95.5693 225.036 95.659 225.011 95.6734 225.007C95.7007 224.999 95.7127 224.994 95.7041 224.997C95.6872 225.004 95.6425 225.024 95.5638 225.066L94.6274 223.299C94.7376 223.24 94.8493 223.186 94.9548 223.143C95.0101 223.121 95.2272 223.029 95.481 223.034C95.595 223.036 96.0423 223.065 96.3247 223.497C96.5994 223.917 96.4594 224.329 96.4228 224.426C96.3361 224.656 96.1781 224.822 96.1337 224.87L94.6698 223.507ZM95.5631 225.066C95.4791 225.111 95.4784 225.12 95.512 225.09C95.5299 225.075 95.5881 225.022 95.6455 224.929C95.7053 224.832 95.7857 224.655 95.7754 224.42C95.7529 223.902 95.357 223.693 95.3312 223.68C95.2649 223.645 95.2416 223.648 95.325 223.666L94.9058 225.622C94.7665 225.592 94.5753 225.543 94.3959 225.448C94.2572 225.374 93.8032 225.099 93.7773 224.507C93.7544 223.981 94.104 223.665 94.1955 223.585C94.3355 223.462 94.496 223.368 94.628 223.299L95.5631 225.066ZM95.3247 223.666C95.5629 223.717 95.9902 223.846 96.2664 224.221C96.435 224.45 96.5528 224.79 96.4559 225.17C96.3684 225.514 96.1456 225.728 95.9878 225.842L94.8153 224.222C94.7534 224.267 94.5865 224.407 94.5178 224.677C94.4398 224.983 94.5395 225.249 94.6563 225.407C94.7565 225.543 94.8626 225.599 94.8875 225.611C94.9216 225.628 94.9318 225.627 94.9061 225.622L95.3247 223.666ZM95.9878 225.842C95.99 225.841 96.0004 225.833 96.0157 225.82C96.0288 225.809 96.0603 225.782 96.0977 225.74C96.1246 225.71 96.2127 225.609 96.2745 225.449C96.3421 225.273 96.4201 224.889 96.1562 224.518C95.9356 224.209 95.6286 224.139 95.5432 224.122C95.4291 224.1 95.3399 224.104 95.3078 224.106C95.2668 224.109 95.2371 224.114 95.2244 224.116C95.21 224.119 95.2013 224.121 95.2001 224.121C95.1983 224.122 95.2081 224.119 95.2326 224.111C95.256 224.104 95.2869 224.093 95.3258 224.079C95.404 224.051 95.5045 224.012 95.6253 223.961L96.3971 225.806C96.1295 225.918 95.8666 226.017 95.6735 226.064C95.626 226.076 95.5376 226.096 95.4347 226.102C95.3866 226.105 95.2844 226.109 95.1605 226.085C95.0653 226.067 94.7515 225.993 94.5274 225.679C94.26 225.304 94.3377 224.913 94.4084 224.729C94.4733 224.561 94.5678 224.451 94.6045 224.41C94.6881 224.316 94.7757 224.251 94.8153 224.222L95.9878 225.842ZM95.6254 223.961C95.8458 223.869 95.9785 223.811 96.0533 223.774C96.0953 223.753 96.0799 223.757 96.0422 223.784C96.0249 223.797 95.9645 223.84 95.8984 223.916C95.8458 223.977 95.6821 224.178 95.6653 224.498C95.6448 224.892 95.8535 225.171 96.0263 225.311C96.169 225.426 96.3047 225.467 96.3426 225.479C96.4298 225.504 96.4841 225.504 96.444 225.501C96.387 225.498 96.2697 225.497 96.0513 225.501L96.0112 223.502C96.2167 223.498 96.4171 223.495 96.5713 223.505C96.6366 223.509 96.7699 223.519 96.9092 223.561C96.9731 223.579 97.1282 223.63 97.2836 223.755C97.4692 223.905 97.6839 224.196 97.6626 224.603C97.6452 224.936 97.4741 225.152 97.4074 225.229C97.3272 225.321 97.246 225.382 97.2012 225.414C97.1086 225.48 97.0114 225.531 96.9447 225.564C96.8019 225.635 96.6097 225.717 96.397 225.806L95.6254 223.961Z" fill="#EA7889" mask="url(#path-2-inside-1_4_81)"/>
<path d="M117.365 231.381C117.365 231.381 117.365 231.381 117.366 231.382L117.366 231.382M117.365 231.381L117.366 231.382L117.366 231.382M117.365 231.381C117.365 231.381 117.366 231.381 117.366 231.382M117.365 231.381L117.366 231.382M89.5889 359.405L89.5889 359.405C90.4881 359.96 91.4111 360.078 94.0008 359.728C95.7049 359.497 102.12 357.919 110.663 355.667C119.185 353.421 129.779 350.517 139.805 347.651C170.377 338.911 193.951 331.054 210.382 324.148C218.599 320.694 225.014 317.484 229.62 314.528C234.25 311.557 236.969 308.893 237.92 306.565C238.258 305.738 238.317 304.721 238.117 303.739C237.916 302.757 237.465 301.855 236.837 301.243C235.238 299.69 232.045 298.281 227.171 297.08C222.321 295.885 215.89 294.913 207.902 294.176C191.556 292.669 174.466 292.367 135.682 292.905C88.8182 293.556 73.5732 293.039 60.1046 290.314C53.4413 288.965 48.9443 286.899 46.8307 284.032C45.7592 282.578 45.3122 280.934 45.497 279.126C45.6803 277.334 46.4819 275.407 47.8556 273.357C51.5405 267.856 57.3733 263.336 67.9 257.726C70.0206 256.596 75.5277 253.629 80.1378 251.132L80.3759 251.572L80.1378 251.132C84.7485 248.636 93.4173 243.955 99.4021 240.731C105.063 237.682 108.947 235.577 111.507 234.167C113.056 233.314 114.108 232.722 114.773 232.332C114.938 232.235 115.08 232.15 115.199 232.077L114.99 231.892C114.99 231.892 114.99 231.892 114.99 231.892C115.139 231.724 115.344 231.606 115.53 231.53C115.721 231.454 115.946 231.4 116.166 231.403C116.364 231.406 116.706 231.28 116.976 231.097C116.973 231.093 116.971 231.089 116.969 231.085C116.919 230.997 116.866 230.838 116.933 230.656C116.993 230.494 117.113 230.414 117.169 230.383C117.23 230.349 117.285 230.334 117.315 230.328C117.418 230.304 117.536 230.306 117.611 230.309C117.707 230.312 117.825 230.32 117.964 230.333C117.963 230.333 117.962 230.333 117.962 230.333C117.962 230.332 117.995 230.332 118.076 230.315C118.16 230.297 118.27 230.266 118.407 230.22C118.679 230.129 119.028 229.989 119.433 229.81C120.243 229.451 121.247 228.947 122.266 228.396C123.283 227.845 124.307 227.25 125.153 226.711C126.015 226.163 126.649 225.7 126.927 225.411C127.512 224.8 127.575 224.369 127.498 224.106C127.414 223.818 127.098 223.488 126.414 223.233C125.064 222.729 122.708 222.694 120.103 223.498C119.02 223.832 116.851 224.856 114.63 226.096C113.03 226.989 110.519 228.353 108.423 229.47C108.523 229.471 108.611 229.473 108.683 229.479C108.737 229.483 108.82 229.492 108.902 229.518C108.94 229.53 109.021 229.559 109.099 229.626C109.191 229.705 109.29 229.847 109.283 230.042C109.276 230.206 109.196 230.317 109.159 230.362C109.116 230.414 109.071 230.449 109.043 230.47C108.985 230.513 108.92 230.549 108.865 230.577C108.751 230.635 108.592 230.706 108.402 230.787C108.166 230.888 107.955 230.967 107.813 231.002C107.778 231.01 107.724 231.022 107.664 231.025C107.635 231.027 107.58 231.028 107.514 231.014C107.459 231.002 107.306 230.96 107.198 230.803C107.133 230.709 107.111 230.612 107.109 230.529C107.049 230.508 106.989 230.482 106.933 230.451C106.895 230.429 106.838 230.393 106.782 230.339C104.52 231.527 100.382 233.739 97.5418 235.278C90.776 238.945 65.5356 252.576 59.695 255.718C50.4638 260.683 44.0727 265.2 39.7601 269.778C34.5514 275.306 32.5901 279.642 33.08 284.031C33.4003 286.897 35.3083 289.378 39.015 291.458C42.7281 293.542 48.1813 295.183 55.4318 296.371C68.8399 298.568 87.4285 299.178 124.224 298.611C172.071 297.874 190.268 298.285 207.813 300.509C214.529 301.36 219.298 302.357 222.213 303.574C223.665 304.18 224.726 304.868 225.318 305.68C225.942 306.536 226.013 307.485 225.578 308.46C225.075 309.588 223.869 310.79 222.118 312.059C220.351 313.34 217.961 314.734 215.001 316.229C209.078 319.218 200.82 322.632 190.558 326.351C170.032 333.792 141.442 342.476 107.382 351.466C99.3237 353.592 95.1534 354.706 92.8198 355.503C91.6547 355.9 90.9826 356.208 90.524 356.504C90.0791 356.792 89.8155 357.081 89.4811 357.495L89.4811 357.495C89.0022 358.088 88.8884 358.437 88.9073 358.651C88.9231 358.83 89.0527 359.074 89.5889 359.405ZM117.684 230.431C117.684 230.431 117.684 230.431 117.684 230.431L117.684 230.431Z" fill="#7C90E9" stroke="#7C90E9"/>
<path d="M81.1678 354.146L81.1679 354.147C82.1161 354.688 83.1019 354.788 85.844 354.397C87.65 354.139 94.4465 352.467 103.492 350.092C112.518 347.723 123.74 344.668 134.362 341.659C166.751 332.484 191.747 324.301 209.195 317.177C217.919 313.615 224.742 310.324 229.653 307.313C234.59 304.286 237.507 301.594 238.55 299.266C238.92 298.442 238.998 297.439 238.804 296.476C238.611 295.512 238.154 294.631 237.504 294.038C235.843 292.523 232.495 291.177 227.369 290.065C222.271 288.959 215.502 288.101 207.088 287.502C189.869 286.277 171.847 286.26 130.933 287.435C81.4936 288.855 65.4294 288.594 51.2754 286.114L51.3617 285.622L51.2754 286.114C47.7584 285.498 44.8378 284.696 42.5266 283.704C40.2185 282.713 38.4875 281.52 37.3874 280.103C36.2763 278.673 35.8291 277.039 36.055 275.234C36.2786 273.448 37.1575 271.523 38.6382 269.469C42.6115 263.957 48.8309 259.382 60.022 253.646C62.2775 252.49 68.135 249.455 73.0385 246.903C77.9426 244.35 87.1629 239.565 93.5283 236.268C99.5495 233.15 103.68 230.998 106.404 229.557C108.061 228.68 109.184 228.073 109.893 227.674C109.901 227.592 109.925 227.532 109.933 227.511C109.984 227.387 110.08 227.284 110.128 227.233C110.283 227.07 110.493 226.953 110.685 226.878C110.881 226.8 111.111 226.746 111.333 226.745C111.561 226.745 111.938 226.606 112.23 226.416C112.176 226.32 112.126 226.155 112.2 225.971C112.265 225.811 112.388 225.736 112.438 225.709C112.496 225.678 112.549 225.664 112.578 225.658C112.677 225.635 112.795 225.635 112.875 225.636C112.974 225.638 113.098 225.644 113.243 225.654C113.243 225.654 113.243 225.654 113.244 225.654C113.25 225.654 113.29 225.652 113.379 225.633C113.471 225.613 113.59 225.58 113.736 225.532C114.028 225.436 114.4 225.291 114.832 225.106C115.693 224.736 116.763 224.218 117.846 223.654C118.93 223.09 120.02 222.483 120.923 221.934C121.842 221.375 122.523 220.903 122.824 220.608C123.462 219.981 123.523 219.558 123.452 219.319C123.373 219.052 123.055 218.728 122.326 218.482C120.899 218.001 118.402 218.006 115.631 218.85C114.477 219.201 112.168 220.255 109.804 221.522C108.111 222.43 105.456 223.816 103.233 224.956C103.323 224.955 103.403 224.956 103.469 224.96C103.525 224.964 103.608 224.97 103.689 224.994C103.726 225.004 103.808 225.031 103.889 225.095C103.986 225.172 104.097 225.321 104.086 225.531C104.076 225.702 103.987 225.813 103.951 225.854C103.907 225.903 103.862 225.937 103.834 225.957C103.776 225.998 103.709 226.033 103.652 226.061C103.533 226.12 103.365 226.192 103.163 226.275C102.913 226.379 102.694 226.46 102.549 226.495C102.514 226.504 102.46 226.516 102.402 226.519C102.375 226.521 102.322 226.523 102.258 226.511C102.21 226.502 102.05 226.466 101.936 226.308C101.869 226.215 101.844 226.12 101.841 226.036C101.78 226.017 101.72 225.994 101.664 225.965C101.624 225.945 101.557 225.905 101.492 225.843C99.0945 227.054 94.6658 229.331 91.6305 230.912C84.4341 234.661 57.5878 248.599 51.3759 251.811C41.5549 256.89 34.7345 261.48 30.106 266.096C24.5131 271.673 22.3798 276.006 22.8224 280.336C23.1109 283.154 25.0693 285.58 28.9512 287.585C32.8364 289.593 38.5652 291.131 46.1959 292.191C60.3061 294.149 79.906 294.446 118.724 293.276C169.2 291.754 188.382 291.861 206.845 293.777C213.914 294.51 218.922 295.419 221.972 296.577C223.489 297.152 224.597 297.816 225.211 298.616C225.525 299.025 225.713 299.475 225.751 299.96C225.789 300.443 225.675 300.925 225.445 301.398C224.897 302.523 223.61 303.731 221.746 305.016C219.864 306.313 217.323 307.735 214.178 309.265C207.885 312.327 199.121 315.848 188.238 319.707C166.468 327.426 136.173 336.512 100.102 345.991C91.5693 348.234 87.1496 349.408 84.6725 350.238C83.4354 350.652 82.7161 350.97 82.2216 351.275C81.7411 351.572 81.4551 351.867 81.0953 352.283L80.717 351.956L81.0953 352.283C80.575 352.885 80.4548 353.232 80.4702 353.431C80.4823 353.588 80.6005 353.823 81.1678 354.146ZM110.345 227.249C110.345 227.249 110.345 227.249 110.346 227.249C110.342 227.25 110.342 227.25 110.345 227.249ZM113.095 225.914C113.052 225.841 113 225.799 112.982 225.785L112.857 226.136C112.935 226.137 113.037 226.141 113.163 226.15C113.16 226.051 113.128 225.968 113.095 225.914ZM115.486 218.371C121.146 216.648 125.93 218.262 123.174 220.965L102.98 224.96C102.979 224.96 102.979 224.96 102.978 224.96C102.968 224.897 102.944 224.83 102.9 224.762C102.862 224.705 102.819 224.662 102.774 224.629C105.039 223.469 107.818 222.019 109.568 221.082C111.936 219.812 114.281 218.738 115.486 218.371ZM102.984 225.083C102.984 225.086 102.984 225.089 102.983 225.092L102.987 225.265C103.084 225.223 103.157 225.191 103.21 225.165C103.247 225.146 103.261 225.138 103.261 225.138C103.261 225.138 103.26 225.138 103.259 225.139C103.258 225.139 103.254 225.142 103.247 225.148C103.237 225.156 103.22 225.171 103.201 225.192C103.179 225.217 103.102 225.309 103.088 225.457C103.73 225.445 103.753 225.482 103.149 225.739C103.184 225.8 103.227 225.846 103.267 225.878C103.336 225.933 103.4 225.951 103.412 225.955C103.429 225.959 103.439 225.961 103.439 225.961C103.44 225.961 103.431 225.96 103.41 225.958C103.338 225.954 103.218 225.955 103.032 225.959C103.023 225.959 103.013 225.959 103.003 225.959L103.003 225.959C102.991 225.96 102.979 225.96 102.967 225.96C102.966 225.966 102.964 225.973 102.962 225.979C102.913 226.167 102.788 226.289 102.689 226.36C102.682 226.365 102.683 226.365 102.689 226.36C102.695 226.355 102.707 226.344 102.721 226.328C102.732 226.316 102.776 226.268 102.806 226.19C102.826 226.141 102.848 226.056 102.838 225.959C102.772 225.956 102.705 225.951 102.64 225.943C102.556 225.974 102.487 225.995 102.437 226.008C102.328 226.035 102.306 226.019 102.398 225.954C102.419 225.939 102.435 225.924 102.448 225.908C102.412 225.899 102.377 225.889 102.343 225.877C102.306 225.864 102.27 225.849 102.236 225.833C102.198 225.814 102.149 225.787 102.099 225.748C102.07 225.726 102.041 225.7 102.014 225.67C102.007 225.687 102 225.705 101.995 225.726L102.984 225.083ZM112.649 226.715C112.649 226.715 112.649 226.714 112.648 226.714C112.649 226.714 112.649 226.715 112.65 226.715L112.649 226.715Z" fill="#F6E278" fill-opacity="0.88" stroke="#F6E278"/>
<path d="M74.6951 271.709L74.5636 273.027C74.2268 272.993 73.8604 272.972 73.4645 272.965C73.0832 272.959 72.7604 272.961 72.4962 272.972C72.2647 274.581 72.1042 276.332 72.0148 278.223L70.475 278.198C70.3932 277.815 70.3574 277.308 70.3677 276.678C70.3779 276.047 70.4014 275.505 70.4381 275.05C70.4898 274.582 70.5486 274.121 70.6147 273.667C70.6807 273.214 70.7143 272.95 70.7155 272.877C70.5105 272.859 70.0267 272.844 69.2641 272.831C68.5015 272.819 67.9734 272.825 67.6796 272.849C65.9413 275.109 64.3439 276.822 62.8874 277.986C61.4312 279.136 59.9845 279.699 58.5473 279.676C57.8434 279.664 57.2603 279.442 56.798 279.009C56.3209 278.576 56.0882 278.007 56.0996 277.304C56.1213 275.969 57.153 274.768 59.1946 273.701C61.2509 272.635 63.8953 271.937 67.1277 271.608C67.5185 271.028 68.2444 270.138 69.3054 268.937C70.3667 267.722 71.4106 266.669 72.4373 265.776C72.8939 264.756 73.2501 264.051 73.5058 263.659C73.7765 263.253 74.0365 263.051 74.2858 263.055C74.5351 263.06 74.7388 263.158 74.897 263.351C75.0552 263.545 75.1318 263.795 75.1268 264.103C75.1221 264.397 74.9463 264.834 74.5994 265.415C74.2675 265.982 73.9157 266.871 73.5439 268.082C73.1724 269.279 72.9119 270.411 72.7625 271.48C73.5251 271.492 74.1693 271.569 74.6951 271.709ZM63.4018 276.124C64.6378 274.985 65.5722 273.901 66.2051 272.869C63.739 272.976 61.8251 273.407 60.4633 274.162C59.1161 274.918 58.4354 275.735 58.4211 276.615C58.4149 276.997 58.5347 277.299 58.7804 277.523C59.0408 277.747 59.3836 277.863 59.8089 277.87C60.9527 277.889 62.1504 277.307 63.4018 276.124ZM71.0028 271.451C71.1135 270.954 71.2556 270.333 71.4291 269.588C71.6175 268.828 71.7274 268.383 71.7589 268.251C71.044 268.914 70.5447 269.405 70.2608 269.723C69.9771 270.026 69.4761 270.62 68.7576 271.503C69.0072 271.492 69.3079 271.49 69.6599 271.495C70.0267 271.487 70.3276 271.477 70.5625 271.466C70.7973 271.455 70.9441 271.45 71.0028 271.451ZM79.243 276.228L79.6989 276.609C79.1876 277.378 78.7458 277.936 78.3735 278.282C78.0161 278.614 77.6174 278.776 77.1774 278.769C76.7375 278.761 76.3811 278.58 76.1082 278.223C75.8352 277.867 75.7031 277.424 75.7117 276.897C75.7284 275.87 76.4389 273.674 77.8431 270.308C79.2476 266.928 80.6821 263.959 82.1466 261.401L83.1058 261.945C81.6234 264.708 80.2805 267.458 79.0771 270.196C77.874 272.92 77.2626 274.883 77.2431 276.085C77.2319 276.775 77.4829 277.123 77.9962 277.132C78.4068 277.138 78.8224 276.837 79.243 276.228ZM89.0819 269.897L88.87 270.752C88.6212 270.718 88.2988 270.698 87.9029 270.692C86.4364 270.668 85.6953 271.14 85.6795 272.108C85.6762 272.313 85.9597 272.919 86.5301 273.926C87.1151 274.933 87.4049 275.605 87.3994 275.942C87.3865 276.734 87.1051 277.353 86.5551 277.799C86.02 278.23 85.3052 278.439 84.4106 278.424C83.1788 278.404 82.2 277.706 81.4743 276.33L82.3199 275.75C82.5225 275.914 82.7393 276.116 82.9701 276.355C83.2012 276.578 83.3746 276.735 83.4905 276.825C83.7651 277.079 84.071 277.209 84.4083 277.214C84.7456 277.219 85.0408 277.107 85.2939 276.876C85.5473 276.631 85.6768 276.333 85.6826 275.981C85.6885 275.614 85.3769 274.934 84.7476 273.941C84.133 272.948 83.8289 272.254 83.8354 271.858C83.847 271.139 84.1566 270.594 84.7641 270.223C85.3862 269.852 86.1885 269.674 87.1711 269.69C88.1683 269.706 88.8052 269.775 89.0819 269.897ZM98.5041 276.431L99.004 276.813C98.7915 277.25 98.4034 277.662 97.8397 278.049C97.2907 278.436 96.7889 278.626 96.3343 278.618C95.469 278.604 95.0438 278.142 95.0586 277.233C95.0655 276.808 95.1838 276.304 95.4133 275.721L94.5858 276.543C93.7808 277.337 93.0827 277.869 92.4916 278.138C91.9151 278.407 91.3483 278.537 90.791 278.528C90.2337 278.519 89.811 278.358 89.5227 278.045C89.2493 277.718 89.1171 277.276 89.1262 276.719C89.1429 275.692 89.5553 274.687 90.3634 273.702C91.1718 272.703 92.197 271.899 93.4391 271.288C94.6812 270.678 95.9183 270.375 97.1504 270.38L97.1825 271.107L96.2554 271.29C94.9162 271.562 93.7261 272.129 92.6853 272.992C91.6591 273.855 91.1389 274.727 91.1245 275.607C91.1105 276.472 91.4554 276.911 92.1593 276.922C92.8192 276.933 93.6406 276.484 94.6235 275.576C95.6064 274.668 96.4306 273.596 97.0962 272.36L98.0111 272.925C97.0721 274.743 96.5985 275.901 96.5904 276.4C96.587 276.605 96.6502 276.782 96.7798 276.931C96.9243 277.066 97.0625 277.134 97.1945 277.136C97.3411 277.138 97.4366 277.133 97.4808 277.119C97.525 277.105 97.5693 277.091 97.6135 277.077C97.658 277.048 97.7099 277.012 97.7693 276.969C97.8433 276.926 97.9027 276.883 97.9474 276.84C98.0068 276.797 98.0958 276.733 98.2146 276.646C98.3333 276.56 98.4298 276.489 98.5041 276.431ZM102.808 276.611L103.264 276.993C102.753 277.762 102.311 278.319 101.939 278.665C101.581 278.997 101.183 279.159 100.743 279.152C100.303 279.145 99.9463 278.963 99.6734 278.606C99.4005 278.25 99.2683 277.808 99.2769 277.28C99.2936 276.253 100.004 274.057 101.408 270.692C102.813 267.311 104.247 264.342 105.712 261.784L106.671 262.328C105.189 265.091 103.846 267.842 102.642 270.58C101.439 273.303 100.828 275.266 100.808 276.469C100.797 277.158 101.048 277.507 101.561 277.515C101.972 277.522 102.388 277.22 102.808 276.611ZM108.78 276.708L109.236 277.09C108.725 277.859 108.283 278.416 107.911 278.762C107.553 279.094 107.154 279.256 106.715 279.249C106.275 279.242 105.918 279.06 105.645 278.704C105.372 278.347 105.24 277.905 105.249 277.377C105.265 276.35 105.976 274.154 107.38 270.789C108.785 267.409 110.219 264.439 111.684 261.882L112.643 262.425C111.16 265.188 109.818 267.939 108.614 270.677C107.411 273.4 106.8 275.363 106.78 276.566C106.769 277.255 107.02 277.604 107.533 277.612C107.944 277.619 108.359 277.318 108.78 276.708ZM120.759 276.793L121.259 277.175C121.046 277.612 120.658 278.024 120.095 278.411C119.546 278.798 119.044 278.988 118.589 278.98C117.724 278.966 117.299 278.504 117.313 277.595C117.32 277.17 117.439 276.666 117.668 276.083L116.841 276.905C116.036 277.699 115.338 278.231 114.746 278.5C114.17 278.769 113.603 278.899 113.046 278.89C112.489 278.881 112.066 278.72 111.778 278.407C111.504 278.08 111.372 277.638 111.381 277.081C111.398 276.054 111.81 275.049 112.618 274.064C113.427 273.065 114.452 272.261 115.694 271.65C116.936 271.04 118.173 270.737 119.405 270.742L119.437 271.469L118.51 271.652C117.171 271.924 115.981 272.491 114.94 273.354C113.914 274.218 113.394 275.089 113.379 275.969C113.365 276.834 113.71 277.273 114.414 277.284C115.074 277.295 115.895 276.846 116.878 275.938C117.861 275.03 118.685 273.958 119.351 272.722L120.266 273.287C119.327 275.105 118.853 276.263 118.845 276.762C118.842 276.967 118.905 277.144 119.035 277.293C119.179 277.428 119.317 277.496 119.449 277.498C119.596 277.5 119.691 277.495 119.736 277.481C119.78 277.467 119.824 277.453 119.868 277.439C119.913 277.41 119.965 277.374 120.024 277.331C120.098 277.289 120.158 277.245 120.202 277.202C120.262 277.159 120.351 277.095 120.469 277.009C120.588 276.922 120.685 276.851 120.759 276.793ZM130.521 276.93L131.063 277.423C130.189 278.802 129.276 279.484 128.323 279.469C127.736 279.459 127.142 279.017 126.54 278.141C125.938 277.266 125.642 276.55 125.651 275.993C125.657 275.641 126.191 275.297 127.252 274.963C127.65 274.837 128.013 274.645 128.34 274.386C128.681 274.113 128.855 273.83 128.86 273.537C128.864 273.243 128.787 273.022 128.628 272.873C128.47 272.709 128.266 272.625 128.016 272.621C126.401 272.741 124.679 274.884 122.851 279.05L121.517 278.566C121.527 277.935 122.419 275.397 124.193 270.952C125.981 266.507 127.243 263.822 127.977 262.895L129.048 263.308C127.012 266.722 125.29 270.699 123.881 275.238C125.053 273.541 126.054 272.413 126.885 271.854C127.715 271.296 128.504 271.022 129.252 271.035C129.707 271.042 130.064 271.187 130.323 271.47C130.597 271.753 130.731 272.115 130.724 272.555C130.717 272.98 130.601 273.367 130.375 273.715C130.164 274.064 129.858 274.367 129.458 274.624C128.88 274.996 128.17 275.359 127.328 275.712C127.449 276.403 127.668 276.928 127.984 277.285C128.301 277.642 128.665 277.824 129.076 277.831C129.296 277.834 129.777 277.534 130.521 276.93ZM140.082 277.724L140.581 278.15C139.948 279.166 139.141 279.667 138.158 279.651C137.308 279.637 136.889 279.212 136.903 278.376C136.911 277.892 137.128 277.125 137.556 276.076C137.999 275.013 138.223 274.312 138.228 273.975C138.235 273.55 137.967 273.333 137.425 273.324C136.882 273.315 136.132 273.89 135.175 275.047C134.232 276.191 133.433 277.527 132.777 279.057L131.487 278.574C132.312 274.759 134.389 269.666 137.72 263.295L138.792 263.665C137.111 266.894 135.903 269.463 135.168 271.373C134.403 273.355 133.826 274.996 133.438 276.295C134.597 274.451 135.586 273.177 136.405 272.471C137.238 271.766 137.955 271.418 138.556 271.428C139.641 271.446 140.177 271.843 140.165 272.62C140.157 273.104 139.871 273.965 139.309 275.203C138.746 276.44 138.461 277.265 138.454 277.675C138.448 278.086 138.642 278.294 139.038 278.301C139.243 278.304 139.591 278.112 140.082 277.724ZM163.065 275.721L164.627 275.725L164.613 276.626C164.437 276.594 164.232 276.576 163.997 276.572C163.763 276.569 163.499 276.579 163.205 276.604C163.186 277.733 162.625 278.868 161.521 280.009C160.417 281.149 159.089 282.067 157.538 282.76C156.001 283.469 154.572 283.812 153.253 283.791C152.563 283.779 152.002 283.594 151.567 283.235C151.148 282.876 150.943 282.411 150.952 281.839C150.966 280.988 151.545 280.11 152.689 279.205C153.833 278.299 155.166 277.558 156.686 276.982C158.206 276.405 159.576 276.075 160.794 275.992C160.651 275.77 160.427 275.576 160.122 275.409C159.817 275.243 159.19 274.983 158.242 274.631C157.295 274.263 156.626 273.871 156.237 273.454C155.848 273.022 155.66 272.425 155.672 271.662C155.685 270.9 156.109 270.034 156.947 269.065C157.784 268.096 158.765 267.29 159.89 266.648C161.03 265.992 162.026 265.671 162.876 265.685C163.258 265.691 163.571 265.835 163.815 266.118C164.06 266.386 164.18 266.718 164.173 267.114C164.163 267.759 163.761 268.567 162.968 269.537C162.175 270.492 161.297 271.218 160.336 271.716L159.82 270.96C160.397 270.676 160.903 270.229 161.338 269.62C161.788 268.997 162.017 268.458 162.025 268.003C162.032 267.549 161.794 267.317 161.31 267.309C160.621 267.298 159.822 267.718 158.913 268.569C158.019 269.405 157.566 270.197 157.554 270.945C157.546 271.458 157.671 271.864 157.93 272.161C158.19 272.459 158.851 272.836 159.914 273.294C160.978 273.736 161.734 274.13 162.183 274.475C162.633 274.805 162.927 275.22 163.065 275.721ZM153.161 281.303C153.15 282.007 153.716 282.368 154.86 282.387C155.49 282.397 156.308 282.175 157.313 281.722C158.332 281.284 159.23 280.653 160.006 279.83C160.797 279.021 161.199 278.184 161.213 277.319C161.215 277.217 161.195 277.062 161.154 276.856C159.142 277.014 157.307 277.549 155.65 278.461C154.007 279.373 153.177 280.32 153.161 281.303ZM174.914 277.674L175.414 278.056C175.201 278.493 174.813 278.905 174.25 279.292C173.701 279.679 173.199 279.869 172.744 279.861C171.879 279.847 171.454 279.385 171.468 278.476C171.475 278.051 171.594 277.547 171.823 276.964L170.996 277.786C170.191 278.58 169.493 279.111 168.901 279.381C168.325 279.65 167.758 279.78 167.201 279.771C166.644 279.762 166.221 279.601 165.932 279.288C165.659 278.961 165.527 278.519 165.536 277.962C165.553 276.935 165.965 275.93 166.773 274.945C167.582 273.946 168.607 273.142 169.849 272.531C171.091 271.921 172.328 271.618 173.56 271.623L173.592 272.35L172.665 272.533C171.326 272.804 170.136 273.372 169.095 274.235C168.069 275.098 167.549 275.97 167.534 276.85C167.52 277.715 167.865 278.154 168.569 278.165C169.229 278.176 170.05 277.727 171.033 276.819C172.016 275.911 172.84 274.839 173.506 273.603L174.421 274.168C173.482 275.986 173.008 277.144 173 277.643C172.997 277.848 173.06 278.025 173.19 278.174C173.334 278.309 173.472 278.377 173.604 278.379C173.751 278.381 173.846 278.376 173.891 278.362C173.935 278.348 173.979 278.334 174.023 278.32C174.068 278.291 174.12 278.255 174.179 278.212C174.253 278.169 174.312 278.126 174.357 278.083C174.417 278.04 174.506 277.976 174.624 277.889C174.743 277.803 174.84 277.732 174.914 277.674ZM185.012 277.398L185.468 277.758C185.135 278.398 184.679 278.933 184.1 279.364C183.536 279.795 183.026 280.006 182.572 279.999C182.117 279.992 181.76 279.854 181.5 279.586C181.241 279.317 181.114 278.985 181.12 278.589C181.127 278.193 181.387 277.508 181.902 276.534C182.431 275.545 182.7 274.816 182.708 274.346C182.711 274.141 182.626 273.956 182.453 273.792C182.294 273.614 182.098 273.522 181.863 273.519C181.115 273.506 180.351 274.066 179.569 275.198C178.788 276.314 177.911 277.936 176.938 280.061L175.626 279.578C175.932 277.881 176.355 276.231 176.894 274.626C177.449 273.007 177.952 271.849 178.403 271.152L179.3 271.453C178.873 272.487 178.323 274.275 177.651 276.817C179.731 273.389 181.621 271.688 183.322 271.716C183.689 271.722 183.988 271.852 184.218 272.105C184.463 272.358 184.583 272.653 184.578 272.991C184.572 273.328 184.523 273.635 184.431 273.912C184.339 274.175 184.05 274.801 183.564 275.791C183.094 276.766 182.856 277.378 182.852 277.627C182.848 277.877 182.918 278.076 183.063 278.225C183.207 278.359 183.345 278.427 183.477 278.43C183.609 278.432 183.72 278.411 183.808 278.369C183.897 278.326 183.993 278.262 184.097 278.176C184.216 278.089 184.32 278.011 184.409 277.939C184.499 277.867 184.603 277.773 184.722 277.658C184.856 277.528 184.953 277.441 185.012 277.398ZM190.595 270.822C189.774 270.809 189.369 270.472 189.379 269.812C189.385 269.446 189.493 269.139 189.702 268.894C189.912 268.648 190.178 268.527 190.5 268.532C190.823 268.538 191.085 268.637 191.288 268.831C191.49 269.025 191.588 269.276 191.583 269.584C191.578 269.892 191.486 270.177 191.305 270.438C191.125 270.699 190.888 270.827 190.595 270.822ZM190.204 277.307L190.637 277.688C190.274 278.357 189.796 278.928 189.201 279.403C188.622 279.863 188.097 280.089 187.628 280.081C186.807 280.068 186.406 279.489 186.424 278.345C186.447 276.923 187.064 275.077 188.274 272.809C188.546 272.314 188.705 272.024 188.751 271.936L189.687 272.524C189.37 273.076 188.974 273.957 188.5 275.167C188.04 276.377 187.808 277.158 187.802 277.51C187.796 277.847 187.866 278.09 188.01 278.239C188.154 278.388 188.329 278.464 188.534 278.468C188.93 278.474 189.487 278.087 190.204 277.307ZM198.043 277.676L198.543 278.081C198.078 278.704 197.446 279.221 196.647 279.634C195.849 280.032 195.075 280.224 194.328 280.212C193.58 280.2 192.982 279.97 192.534 279.523C192.087 279.076 191.869 278.493 191.881 277.774C191.903 276.425 192.636 275.109 194.079 273.827C195.538 272.546 197 271.917 198.467 271.94C199.434 271.956 199.912 272.345 199.9 273.108C199.887 273.9 199.361 274.691 198.321 275.481C197.296 276.271 195.854 276.981 193.996 277.61C194.122 277.95 194.323 278.217 194.599 278.412C194.874 278.608 195.159 278.708 195.452 278.712C196.083 278.723 196.946 278.377 198.043 277.676ZM193.897 276.949C195.091 276.558 196.119 276.061 196.979 275.459C197.84 274.857 198.274 274.299 198.283 273.786C198.286 273.595 198.215 273.425 198.071 273.276C197.927 273.127 197.759 273.051 197.568 273.048C196.879 273.037 196.124 273.457 195.304 274.309C194.498 275.147 194.029 276.027 193.897 276.949ZM206.506 272.621C206.872 272.627 207.171 272.757 207.401 273.01C207.632 273.263 207.744 273.588 207.738 273.984C207.725 274.775 207.256 275.604 206.333 276.469L205.812 276.042C206.024 275.591 206.132 275.263 206.136 275.058C206.142 274.662 205.926 274.46 205.486 274.453C205.046 274.446 204.623 274.718 204.218 275.268C203.813 275.819 203.33 276.677 202.768 277.841C202.221 278.991 201.805 279.806 201.518 280.285L200.273 279.715C201.11 277.895 201.589 276.825 201.712 276.504C202.126 275.366 202.348 273.918 202.376 272.158L203.614 271.848C203.554 272.801 203.476 273.54 203.38 274.067C203.283 274.578 203.057 275.418 202.701 276.586C204.225 273.926 205.494 272.605 206.506 272.621ZM216.899 278.159L217.355 278.541C217.096 279.152 216.691 279.667 216.142 280.083C215.607 280.5 215.119 280.704 214.68 280.697C214.254 280.69 213.919 280.538 213.675 280.241C213.431 279.929 213.312 279.531 213.32 279.047C213.328 278.563 213.419 277.941 213.593 277.181C212.886 278.255 212.131 279.094 211.329 279.697C210.527 280.3 209.855 280.597 209.313 280.588C208.491 280.575 208.09 279.981 208.109 278.808C208.126 277.811 208.484 276.541 209.184 274.997C209.883 273.454 210.389 272.56 210.701 272.316L211.75 272.795C211.133 273.753 210.663 274.699 210.339 275.632C210.016 276.566 209.852 277.194 209.847 277.516C209.842 277.824 209.933 278.075 210.12 278.269C210.323 278.463 210.556 278.562 210.82 278.566C211.406 278.576 212.141 278.052 213.024 276.996C213.921 275.925 214.842 274.326 215.786 272.2L216.9 272.724C216.868 272.841 216.517 273.686 215.846 275.26C215.19 276.833 214.859 277.781 214.854 278.104C214.849 278.412 214.911 278.647 215.04 278.811C215.184 278.975 215.322 279.058 215.454 279.06C215.601 279.062 215.711 279.057 215.785 279.043C215.858 279.03 215.932 279.001 216.006 278.959C216.08 278.916 216.139 278.88 216.184 278.852C216.243 278.823 216.31 278.773 216.384 278.701L216.563 278.55C216.593 278.506 216.645 278.441 216.72 278.354C216.81 278.253 216.869 278.188 216.899 278.159ZM226.987 278.081L227.443 278.441C227.11 279.081 226.654 279.616 226.075 280.047C225.511 280.477 225.001 280.689 224.547 280.682C224.092 280.674 223.735 280.537 223.475 280.268C223.215 280 223.089 279.668 223.095 279.272C223.102 278.876 223.362 278.191 223.877 277.216C224.406 276.228 224.675 275.499 224.683 275.029C224.686 274.824 224.601 274.639 224.427 274.475C224.269 274.296 224.072 274.205 223.838 274.201C223.09 274.189 222.325 274.749 221.544 275.88C220.763 276.997 219.886 278.618 218.913 280.744L217.6 280.261C217.907 278.564 218.33 276.914 218.869 275.309C219.424 273.69 219.927 272.532 220.378 271.835L221.275 272.135C220.848 273.17 220.298 274.958 219.626 277.499C221.706 274.071 223.596 272.371 225.297 272.399C225.664 272.405 225.963 272.534 226.193 272.788C226.438 273.041 226.558 273.336 226.553 273.674C226.547 274.011 226.498 274.318 226.406 274.595C226.314 274.858 226.025 275.484 225.539 276.473C225.069 277.449 224.831 278.061 224.827 278.31C224.823 278.559 224.893 278.759 225.037 278.908C225.182 279.042 225.32 279.11 225.452 279.112C225.584 279.114 225.695 279.094 225.783 279.052C225.872 279.009 225.968 278.945 226.072 278.858C226.191 278.772 226.295 278.693 226.384 278.621C226.473 278.55 226.578 278.456 226.697 278.34C226.831 278.211 226.928 278.124 226.987 278.081ZM237.424 280.121L237.438 280.649C237.29 280.735 236.618 280.988 235.423 281.409C234.908 284.202 234.186 286.215 233.257 287.446C232.327 288.678 231.203 289.283 229.883 289.262C229.267 289.252 228.779 289.046 228.419 288.644C228.058 288.242 227.884 287.726 227.894 287.095C227.914 285.834 228.513 284.663 229.689 283.582C230.865 282.515 232.426 281.683 234.372 281.084C234.608 280.105 235.027 278.725 235.628 276.946C234.621 278.425 233.71 279.423 232.895 279.937C232.094 280.453 231.371 280.705 230.726 280.694C230.081 280.684 229.593 280.5 229.261 280.142C228.944 279.785 228.79 279.313 228.8 278.727C228.816 277.759 229.235 276.783 230.058 275.799C230.881 274.8 231.906 273.995 233.133 273.385C234.376 272.759 235.569 272.456 236.713 272.475L236.876 273.247C235.246 273.397 233.836 273.946 232.647 274.895C231.473 275.844 230.878 276.766 230.864 277.66C230.857 278.041 230.97 278.359 231.2 278.612C231.431 278.865 231.715 278.994 232.052 279C232.551 279.008 233.314 278.492 234.343 277.453C235.372 276.413 236.098 275.523 236.521 274.782L237.328 275.257C236.486 277.4 235.899 279.209 235.567 280.685L237.424 280.121ZM234.23 281.741C232.944 282.307 231.877 282.994 231.028 283.802C230.178 284.609 229.748 285.35 229.737 286.025C229.732 286.377 229.83 286.665 230.031 286.888C230.233 287.111 230.488 287.225 230.796 287.23C231.412 287.24 232.027 286.818 232.643 285.962C233.258 285.107 233.787 283.7 234.23 281.741Z" fill="#F7E48D"/>
<path fill-rule="evenodd" clip-rule="evenodd" d="M192.948 93.052C188.816 93.1361 180.737 102.445 172.911 116.14C168.372 124.081 167.267 126.585 165.617 132.655C163.356 140.977 159.238 148.857 153.99 154.908C148.928 160.741 148.105 160.828 140.172 156.353C133.025 152.322 131.022 152.163 129.151 155.48L128.299 156.991L152.285 170.52C174.845 183.245 176.313 183.976 176.969 182.814C177.353 182.134 177.611 180.629 177.542 179.47C177.429 177.531 176.908 177.074 171.017 173.751C167.496 171.765 164.255 169.525 163.815 168.774C161.452 164.744 169.31 148.246 177.929 139.141C184.557 132.139 189.316 124.459 193.438 114.112C197.631 103.589 198.856 97.5196 197.262 95.1754C195.825 93.0628 195.691 92.9965 192.948 93.052ZM194.089 99.8458C194.804 102.899 190.058 107.176 188.365 105.004C186.74 102.918 190.499 96.7209 192.653 97.9356C193.28 98.2892 193.926 99.1486 194.089 99.8458ZM122.222 167.764L117.313 176.466C117.313 176.466 131.945 184.719 141.32 190.007C150.695 195.295 165.326 203.548 165.326 203.548L169.952 194.926L174.579 186.304L150.855 172.682L127.131 159.061L122.222 167.764ZM109.735 190.289C102.243 204.536 100.226 211.236 102.093 215.674L103.22 218.352L103.853 216.255C105.352 211.282 105.953 210.298 105.096 214.217C104.004 219.211 104.168 220.641 105.571 218.361L106.583 216.715L106.043 218.703C105.577 220.421 106.024 221.151 109.327 224.069C111.43 225.927 113.373 227.375 113.644 227.287C113.916 227.199 114.887 225.134 115.802 222.699C116.718 220.263 118.381 216.31 119.497 213.914L121.526 209.558L120.196 213.392C115.1 228.092 115.038 228.361 116.589 229.236C117.401 229.694 118.854 230.771 119.818 231.631L121.572 233.193L123.571 229.851C124.671 228.013 125.244 227.356 124.842 228.39C122.673 233.987 122.921 234.662 127.552 235.746C128.931 236.069 129.402 235.756 129.968 234.142C130.354 233.039 131.763 229.864 133.099 227.088C135.506 222.087 135.504 222.107 132.891 229.263L130.254 236.485L133.103 238.368L135.953 240.251L138.391 235.39L140.828 230.531L139.059 235.492C137.476 239.933 137.448 240.568 138.787 241.536C141.575 243.55 142.223 242.918 144.297 236.165C145.349 232.738 147.388 227.497 148.827 224.517L151.445 219.099L148.708 226.724C147.203 230.918 145.482 236.446 144.884 239.007C143.727 243.962 144.181 244.723 148.911 245.766L150.662 246.151L150.363 243.506C149.722 237.839 153.004 227.286 159.53 214.032L163.593 205.78L139.781 192.108L115.969 178.436L109.735 190.289Z" fill="#B5B3A6"/>
<path fill-rule="evenodd" clip-rule="evenodd" d="M122.222 167.764L117.313 176.466C117.313 176.466 131.945 184.719 141.32 190.007C150.695 195.295 165.326 203.548 165.326 203.548L169.952 194.926L174.579 186.304L150.855 172.682L127.131 159.061L122.222 167.764Z" fill="#B5B3A6"/>
<path fill-rule="evenodd" clip-rule="evenodd" d="M110.269 189.825C102.777 204.072 100.76 210.773 102.627 215.21L103.754 217.889L104.387 215.791C105.886 210.819 106.487 209.834 105.63 213.754C104.538 218.747 104.702 220.177 106.105 217.897L107.117 216.252L106.577 218.24C106.111 219.957 106.558 220.687 109.861 223.606C111.964 225.464 113.907 226.912 114.178 226.824C114.45 226.736 115.421 224.671 116.336 222.235C117.252 219.8 118.915 215.847 120.031 213.451L122.06 209.094L120.73 212.928C115.634 227.628 115.572 227.897 117.123 228.772C117.935 229.23 119.388 230.307 120.352 231.167L122.106 232.729L124.105 229.387C125.205 227.55 125.778 226.892 125.376 227.927C123.207 233.524 123.455 234.198 128.086 235.283C129.465 235.606 129.936 235.293 130.502 233.678C130.888 232.575 132.297 229.401 133.633 226.624C136.04 221.623 136.038 221.643 133.425 228.799L130.788 236.022L133.637 237.904L136.487 239.787L138.925 234.927L141.362 230.067L139.593 235.029C138.01 239.469 137.982 240.104 139.321 241.073C142.109 243.087 142.757 242.454 144.831 235.701C145.883 232.275 147.922 227.033 149.361 224.053L151.979 218.635L149.242 226.26C147.737 230.454 146.016 235.982 145.418 238.544C144.261 243.498 144.715 244.26 149.445 245.302L151.196 245.687L150.896 243.042C150.256 237.376 153.538 226.822 160.064 213.568L164.127 205.316L140.315 191.644L116.503 177.972L110.269 189.825Z" fill="#8D7546"/>
<path fill-rule="evenodd" clip-rule="evenodd" d="M193.186 93C189.054 93.0841 180.975 102.393 173.148 116.088C168.61 124.029 167.505 126.532 165.855 132.603C163.594 140.925 159.476 148.805 154.228 154.856C149.166 160.689 148.343 160.776 140.41 156.301C133.263 152.269 131.26 152.111 129.389 155.428L128.537 156.939L152.523 170.468C175.083 183.193 176.551 183.924 177.207 182.762C177.591 182.082 177.848 180.577 177.78 179.418C177.667 177.479 177.145 177.022 171.255 173.699C167.734 171.713 164.492 169.473 164.052 168.722C161.69 164.692 169.548 148.194 178.167 139.089C184.795 132.087 189.554 124.407 193.676 114.06C197.869 103.537 199.094 97.4676 197.5 95.1234C196.063 93.0107 195.929 92.9445 193.186 93ZM194.327 99.7938C195.042 102.847 190.296 107.124 188.603 104.952C186.978 102.866 190.737 96.6688 192.891 97.8836C193.518 98.2372 194.164 99.0966 194.327 99.7938Z" fill="#CB3F2D"/>
<path d="M175.562 48.9997L174 50.2497L177.438 54.101C177.582 54.2632 177.773 54.3953 177.995 54.4864C178.216 54.5775 178.462 54.625 178.711 54.6247H178.82C179.026 54.6246 179.229 54.6569 179.419 54.7197C179.609 54.7826 179.781 54.8748 179.927 54.991L184.106 58.3347L180.017 61.6522C179.318 61.4875 178.58 61.4555 177.862 61.5586C177.145 61.6617 176.467 61.8972 175.883 62.2464C175.299 62.5955 174.825 63.0487 174.498 63.5701C174.171 64.0914 174.001 64.6665 174 65.2497C174.001 65.7872 174.146 66.3181 174.426 66.8067C174.706 67.2953 175.114 67.73 175.622 68.0815C176.13 68.4329 176.727 68.6929 177.372 68.8437C178.017 68.9946 178.694 69.0328 179.359 68.9558C180.024 68.8788 180.66 68.6884 181.225 68.3974C181.79 68.1065 182.27 67.7218 182.633 67.2695C182.996 66.8171 183.233 66.3077 183.328 65.7757C183.423 65.2437 183.374 64.7016 183.184 64.186L187.331 60.9147L188.844 62.1247L188.367 63.2672C188.276 63.4875 188.262 63.7237 188.329 63.9496C188.396 64.1754 188.54 64.3819 188.745 64.546L193.989 68.741C194.282 68.9753 194.679 69.107 195.094 69.107C195.508 69.107 195.905 68.9753 196.198 68.741L198.677 66.7585C198.969 66.5241 199.134 66.2062 199.134 65.8747C199.134 65.5433 198.969 65.2254 198.677 64.991L193.433 60.796C193.228 60.6318 192.97 60.5166 192.687 60.4631C192.405 60.4097 192.11 60.4202 191.834 60.4935L190.406 60.8747L188.906 59.6747L193.094 56.371C193.788 56.5193 194.516 56.5381 195.222 56.4258C195.927 56.3134 196.59 56.0731 197.161 55.7232C197.732 55.3733 198.194 54.9232 198.513 54.4077C198.832 53.8922 198.998 53.3249 199 52.7497C199 52.4135 198.945 52.0872 198.841 51.7785L195.497 54.4547L192.75 53.9997L192.181 51.8035L195.527 49.1272C194.731 48.9561 193.893 48.9557 193.097 49.1263C192.301 49.2969 191.575 49.6323 190.993 50.0988C190.41 50.5652 189.992 51.1463 189.78 51.7833C189.568 52.4203 189.569 53.0908 189.784 53.7272L185.659 57.0747L181.489 53.741C181.196 53.5066 181.031 53.1887 181.031 52.8572V52.7685C181.031 52.5694 180.972 52.3733 180.858 52.1963C180.744 52.0193 180.579 51.8666 180.377 51.751L175.562 48.9997ZM190.634 62.3072C190.707 62.249 190.793 62.2029 190.888 62.1713C190.983 62.1398 191.085 62.1236 191.188 62.1236C191.29 62.1236 191.392 62.1398 191.487 62.1713C191.582 62.2029 191.668 62.249 191.741 62.3072L196.428 66.0572C196.501 66.1153 196.558 66.1843 196.598 66.2603C196.637 66.3362 196.657 66.4176 196.657 66.4997C196.657 66.5819 196.637 66.6633 196.598 66.7392C196.558 66.8151 196.501 66.8841 196.428 66.9422C196.355 67.0003 196.269 67.0464 196.174 67.0779C196.079 67.1093 195.978 67.1255 195.875 67.1255C195.772 67.1255 195.671 67.1093 195.576 67.0779C195.481 67.0464 195.395 67.0003 195.322 66.9422L190.634 63.1922C190.562 63.1342 190.504 63.0652 190.465 62.9893C190.425 62.9133 190.405 62.8319 190.405 62.7497C190.405 62.6675 190.425 62.5861 190.465 62.5102C190.504 62.4343 190.562 62.3653 190.634 62.3072ZM178.688 62.7497L179.423 63.0522L180.25 63.0847L180.698 63.641L181.394 63.9997L181.434 64.661L181.812 65.2497L181.434 65.8385L181.394 66.4997L180.698 66.8585L180.25 67.4147L179.423 67.4472L178.688 67.7497L177.952 67.4472L177.125 67.4147L176.677 66.8585L175.981 66.4997L175.941 65.8385L175.562 65.2497L175.941 64.661L175.981 63.9997L176.677 63.641L177.125 63.0847L177.952 63.0522L178.688 62.7497Z" fill="#F6E278"/>
</svg>
