<svg width="411" height="414" viewBox="0 0 411 414" fill="none" xmlns="http://www.w3.org/2000/svg">
<rect x="0.5" y="0.5" width="410" height="413" rx="39.5" fill="black" stroke="black"/>
<path d="M320.558 168.559H334L210.141 40L69 168.559H83.4022M320.558 168.559V270M320.558 168.559H236.545M83.4022 270V168.559M83.4022 168.559H164.054" stroke="#999999" stroke-width="10"/>
<mask id="path-3-inside-1_4_81" fill="white">
<path fill-rule="evenodd" clip-rule="evenodd" d="M100.38 397.09C97.4585 397.501 96.2464 397.42 95.0657 396.734C93.7831 395.989 93.7214 395.215 94.8392 393.901C96.421 392.042 97.1843 391.786 115.301 387.02C191.956 366.856 244.009 348.307 248.125 339.689C249.816 336.149 243.773 333.805 228.734 332.166C209.125 330.029 188.751 329.836 135.056 331.277C93.7692 332.385 72.8743 331.988 57.8049 329.811C41.5161 327.458 33.1237 323.037 32.4344 316.446C31.9203 311.524 34.3168 306.703 40.278 300.674C45.2393 295.655 52.5316 290.701 62.9796 285.249C69.5747 281.808 98.0785 266.876 105.719 262.86C108.955 261.159 113.682 258.707 116.224 257.412C118.765 256.117 122.719 254.043 125.01 252.804C127.524 251.444 130.014 250.294 131.294 249.904C137.309 248.066 142.405 249.827 139.483 252.732C138.009 254.198 130.059 258.374 128.904 258.29C128.297 258.246 128.178 258.274 128.488 258.387C129.009 258.578 127.711 259.464 126.913 259.462C126.603 259.461 126.2 259.62 126.019 259.816C125.795 260.056 125.922 260.052 126.409 259.806C126.881 259.566 126.961 259.561 126.639 259.789C125.805 260.38 121.039 262.925 108.253 269.606C101.495 273.138 91.7054 278.264 86.4989 280.999C81.2924 283.733 75.0718 286.985 72.6754 288.224C60.8127 294.358 54.3076 299.223 50.178 305.048C44.0268 313.724 48.4682 319.513 63.3454 322.21C78.3491 324.931 95.3815 325.28 147.986 323.945C191.508 322.84 210.703 322.93 229.055 324.322C246.987 325.683 257.986 328.143 261.76 331.636C263.345 333.104 263.907 335.889 263.024 337.901C258.337 348.58 220.869 363.979 152.014 383.524C129.432 389.934 104.298 396.537 100.38 397.09ZM118.031 257.502C117.516 257.512 117.232 257.371 117.402 257.188C117.591 256.985 117.473 256.982 117.096 257.183C116.664 257.411 116.67 257.549 117.115 257.644C117.465 257.719 117.593 257.894 117.402 258.032C117.21 258.171 117.484 258.104 118.011 257.884C118.877 257.522 118.879 257.485 118.031 257.502Z"/>
</mask>
<path fill-rule="evenodd" clip-rule="evenodd" d="M100.38 397.09C97.4585 397.501 96.2464 397.42 95.0657 396.734C93.7831 395.989 93.7214 395.215 94.8392 393.901C96.421 392.042 97.1843 391.786 115.301 387.02C191.956 366.856 244.009 348.307 248.125 339.689C249.816 336.149 243.773 333.805 228.734 332.166C209.125 330.029 188.751 329.836 135.056 331.277C93.7692 332.385 72.8743 331.988 57.8049 329.811C41.5161 327.458 33.1237 323.037 32.4344 316.446C31.9203 311.524 34.3168 306.703 40.278 300.674C45.2393 295.655 52.5316 290.701 62.9796 285.249C69.5747 281.808 98.0785 266.876 105.719 262.86C108.955 261.159 113.682 258.707 116.224 257.412C118.765 256.117 122.719 254.043 125.01 252.804C127.524 251.444 130.014 250.294 131.294 249.904C137.309 248.066 142.405 249.827 139.483 252.732C138.009 254.198 130.059 258.374 128.904 258.29C128.297 258.246 128.178 258.274 128.488 258.387C129.009 258.578 127.711 259.464 126.913 259.462C126.603 259.461 126.2 259.62 126.019 259.816C125.795 260.056 125.922 260.052 126.409 259.806C126.881 259.566 126.961 259.561 126.639 259.789C125.805 260.38 121.039 262.925 108.253 269.606C101.495 273.138 91.7054 278.264 86.4989 280.999C81.2924 283.733 75.0718 286.985 72.6754 288.224C60.8127 294.358 54.3076 299.223 50.178 305.048C44.0268 313.724 48.4682 319.513 63.3454 322.21C78.3491 324.931 95.3815 325.28 147.986 323.945C191.508 322.84 210.703 322.93 229.055 324.322C246.987 325.683 257.986 328.143 261.76 331.636C263.345 333.104 263.907 335.889 263.024 337.901C258.337 348.58 220.869 363.979 152.014 383.524C129.432 389.934 104.298 396.537 100.38 397.09ZM118.031 257.502C117.516 257.512 117.232 257.371 117.402 257.188C117.591 256.985 117.473 256.982 117.096 257.183C116.664 257.411 116.67 257.549 117.115 257.644C117.465 257.719 117.593 257.894 117.402 258.032C117.21 258.171 117.484 258.104 118.011 257.884C118.877 257.522 118.879 257.485 118.031 257.502Z" fill="#EA7889"/>
<path d="M100.38 397.09L100.52 398.08L100.52 398.08L100.38 397.09ZM95.0657 396.734L95.5681 395.869L95.5682 395.869L95.0657 396.734ZM94.8392 393.901L95.6008 394.549L95.6008 394.55L94.8392 393.901ZM115.301 387.02L115.555 387.987L115.555 387.987L115.301 387.02ZM248.125 339.689L247.222 339.258L247.222 339.258L248.125 339.689ZM228.734 332.166L228.625 333.16L228.625 333.16L228.734 332.166ZM135.056 331.277L135.083 332.276L135.056 331.277ZM57.8049 329.811L57.9479 328.822L57.9479 328.822L57.8049 329.811ZM32.4344 316.446L31.4398 316.55L31.4398 316.55L32.4344 316.446ZM40.278 300.674L40.9892 301.377L40.9891 301.377L40.278 300.674ZM62.9796 285.249L62.517 284.363L62.517 284.363L62.9796 285.249ZM105.719 262.86L106.184 263.745L106.184 263.745L105.719 262.86ZM125.01 252.804L125.485 253.684L125.485 253.684L125.01 252.804ZM131.294 249.904L131.586 250.86L131.586 250.86L131.294 249.904ZM139.483 252.732L140.189 253.441L140.188 253.442L139.483 252.732ZM128.904 258.29L128.976 257.293L128.976 257.293L128.904 258.29ZM128.488 258.387L128.144 259.326L128.144 259.326L128.488 258.387ZM126.913 259.462L126.91 260.462L126.91 260.462L126.913 259.462ZM126.019 259.816L126.751 260.497L126.751 260.497L126.019 259.816ZM126.409 259.806L125.957 258.914L125.957 258.913L126.409 259.806ZM126.639 259.789L126.061 258.973L126.061 258.973L126.639 259.789ZM108.253 269.606L107.79 268.72L107.79 268.72L108.253 269.606ZM86.4989 280.999L86.0339 280.113L86.0339 280.113L86.4989 280.999ZM72.6754 288.224L73.1348 289.112L73.1348 289.112L72.6754 288.224ZM50.178 305.048L50.9938 305.626L50.9938 305.626L50.178 305.048ZM63.3454 322.21L63.167 323.194L63.167 323.194L63.3454 322.21ZM147.986 323.945L147.96 322.945L147.96 322.945L147.986 323.945ZM229.055 324.322L229.131 323.325L229.055 324.322ZM261.76 331.636L262.439 330.902L262.439 330.903L261.76 331.636ZM263.024 337.901L262.108 337.5L262.108 337.5L263.024 337.901ZM152.014 383.524L152.287 384.486L152.287 384.486L152.014 383.524ZM118.031 257.502L118.051 258.501L118.051 258.501L118.031 257.502ZM117.402 257.188L116.669 256.508L116.67 256.507L117.402 257.188ZM117.096 257.183L117.564 258.066L117.563 258.066L117.096 257.183ZM117.115 257.644L116.906 258.622L116.906 258.622L117.115 257.644ZM118.011 257.884L117.625 256.961L117.625 256.961L118.011 257.884ZM100.52 398.08C97.5845 398.493 96.0635 398.471 94.5632 397.599L95.5682 395.869C96.4293 396.37 97.3325 396.509 100.241 396.099L100.52 398.08ZM94.5633 397.599C93.8507 397.185 93.1325 396.574 93.0555 395.611C92.9849 394.727 93.5018 393.93 94.0776 393.253L95.6008 394.55C95.3503 394.844 95.202 395.067 95.1212 395.232C95.0822 395.312 95.0639 395.369 95.0556 395.404C95.0516 395.422 95.05 395.434 95.0495 395.441C95.0489 395.448 95.0491 395.451 95.0491 395.451C95.0491 395.451 95.049 395.45 95.0487 395.449C95.0483 395.447 95.0483 395.448 95.0495 395.45C95.0517 395.456 95.0619 395.477 95.093 395.513C95.1609 395.593 95.3004 395.714 95.5681 395.869L94.5633 397.599ZM94.0775 393.253C94.4999 392.757 94.9222 392.303 95.6268 391.864C96.3035 391.441 97.2009 391.057 98.5508 390.603C101.245 389.697 106.008 388.431 115.047 386.053L115.555 387.987C106.477 390.375 101.801 391.62 99.1883 392.498C97.885 392.937 97.1627 393.263 96.6853 393.561C96.2357 393.841 95.9694 394.116 95.6008 394.549L94.0775 393.253ZM115.047 386.053C153.359 375.975 185.507 366.305 208.579 358.083C220.119 353.971 229.367 350.229 235.974 346.987C239.279 345.365 241.899 343.881 243.808 342.55C245.754 341.193 246.827 340.086 247.222 339.258L249.027 340.12C248.393 341.447 246.94 342.804 244.952 344.191C242.926 345.603 240.206 347.138 236.855 348.783C230.149 352.073 220.821 355.844 209.251 359.967C186.105 368.215 153.898 377.901 115.555 387.987L115.047 386.053ZM247.222 339.258C247.374 338.94 247.413 338.693 247.397 338.497C247.382 338.306 247.309 338.096 247.126 337.855C246.733 337.336 245.879 336.743 244.341 336.147C241.295 334.965 236.14 333.979 228.625 333.16L228.842 331.172C236.367 331.992 241.753 332.997 245.065 334.282C246.706 334.919 247.986 335.678 248.72 336.646C249.101 337.149 249.34 337.715 249.391 338.336C249.44 338.953 249.298 339.553 249.027 340.12L247.222 339.258ZM228.625 333.16C209.093 331.032 188.785 330.835 135.083 332.276L135.029 330.277C188.718 328.836 209.156 329.027 228.842 331.172L228.625 333.16ZM135.083 332.276C93.804 333.384 72.8277 332.992 57.6619 330.801L57.9479 328.822C72.921 330.985 93.7344 331.385 135.029 330.277L135.083 332.276ZM57.6619 330.801C49.4745 329.618 43.1728 327.904 38.8038 325.603C34.4266 323.297 31.8329 320.308 31.4398 316.55L33.429 316.342C33.7253 319.175 35.6724 321.693 39.7359 323.833C43.8076 325.978 49.8465 327.651 57.9479 328.822L57.6619 330.801ZM31.4398 316.55C30.8782 311.172 33.5398 306.067 39.5669 299.971L40.9891 301.377C35.0939 307.34 32.9624 311.875 33.429 316.342L31.4398 316.55ZM39.5669 299.971C44.6335 294.846 52.0299 289.834 62.517 284.363L63.4422 286.136C53.0332 291.567 45.845 296.465 40.9892 301.377L39.5669 299.971ZM62.517 284.363C69.1111 280.922 97.614 265.991 105.254 261.975L106.184 263.745C98.5431 267.762 70.0383 282.694 63.4421 286.136L62.517 284.363ZM105.254 261.975C108.493 260.272 113.224 257.819 115.77 256.521L116.678 258.303C114.141 259.596 109.418 262.046 106.184 263.745L105.254 261.975ZM115.77 256.521C118.305 255.229 122.251 253.16 124.534 251.925L125.485 253.684C123.187 254.927 119.226 257.004 116.678 258.303L115.77 256.521ZM124.534 251.925C127.056 250.56 129.621 249.369 131.002 248.947L131.586 250.86C130.408 251.22 127.991 252.328 125.485 253.684L124.534 251.925ZM131.002 248.947C134.131 247.992 137.139 247.928 139.066 248.594C140.003 248.918 140.942 249.51 141.241 250.523C141.556 251.591 141.023 252.612 140.189 253.441L138.778 252.023C139.405 251.4 139.33 251.112 139.323 251.089C139.3 251.013 139.138 250.735 138.413 250.485C137.02 250.003 134.472 249.978 131.586 250.86L131.002 248.947ZM140.188 253.442C139.726 253.901 138.857 254.491 137.894 255.083C136.901 255.693 135.713 256.361 134.539 256.978C133.367 257.594 132.195 258.166 131.234 258.581C130.755 258.788 130.314 258.963 129.943 259.086C129.758 259.146 129.576 259.199 129.408 259.235C129.255 259.268 129.046 259.303 128.831 259.288L128.976 257.293C128.906 257.288 128.894 257.3 128.986 257.28C129.062 257.264 129.171 257.234 129.317 257.186C129.608 257.09 129.988 256.941 130.44 256.746C131.341 256.356 132.465 255.808 133.609 255.207C134.752 254.607 135.9 253.961 136.848 253.379C137.826 252.778 138.503 252.297 138.778 252.023L140.188 253.442ZM128.831 259.288C128.686 259.277 128.585 259.272 128.519 259.271C128.416 259.269 128.474 259.278 128.579 259.254C128.613 259.246 128.701 259.224 128.804 259.168C128.893 259.121 129.129 258.977 129.253 258.663C129.398 258.299 129.291 257.975 129.188 257.8C129.098 257.647 128.99 257.559 128.952 257.53C128.904 257.492 128.863 257.469 128.846 257.459C128.826 257.448 128.812 257.441 128.808 257.439C128.801 257.436 128.806 257.439 128.832 257.448L128.144 259.326C128.092 259.307 128.033 259.284 127.976 259.258C127.933 259.238 127.828 259.189 127.722 259.106C127.673 259.068 127.557 258.972 127.462 258.812C127.355 258.628 127.247 258.298 127.394 257.927C127.52 257.607 127.762 257.457 127.861 257.405C127.974 257.344 128.075 257.317 128.126 257.306C128.298 257.266 128.48 257.269 128.56 257.271C128.677 257.273 128.818 257.281 128.976 257.293L128.831 259.288ZM128.832 257.448C129.066 257.534 129.423 257.747 129.56 258.199C129.685 258.613 129.539 258.958 129.449 259.121C129.271 259.442 128.971 259.678 128.759 259.823C128.315 260.126 127.592 260.464 126.91 260.462L126.915 258.462C126.948 258.462 127.052 258.448 127.214 258.387C127.367 258.329 127.518 258.249 127.631 258.171C127.779 258.071 127.755 258.05 127.699 258.151C127.67 258.204 127.546 258.448 127.645 258.777C127.756 259.145 128.04 259.288 128.144 259.326L128.832 257.448ZM126.91 260.462C126.915 260.462 126.904 260.462 126.875 260.468C126.848 260.473 126.817 260.483 126.785 260.495C126.754 260.508 126.731 260.52 126.72 260.527C126.705 260.536 126.721 260.529 126.751 260.497L125.286 259.135C125.514 258.889 125.808 258.731 126.05 258.635C126.3 258.536 126.605 258.461 126.916 258.462L126.91 260.462ZM126.751 260.497C126.736 260.512 126.738 260.512 126.749 260.498C126.751 260.495 126.802 260.43 126.845 260.323C126.865 260.273 127.04 259.84 126.732 259.405C126.428 258.977 125.97 258.992 125.922 258.994C125.809 258.996 125.734 259.02 125.731 259.021C125.715 259.026 125.714 259.027 125.735 259.019C125.775 259.002 125.846 258.97 125.957 258.914L126.861 260.698C126.728 260.765 126.601 260.825 126.488 260.871C126.422 260.898 126.21 260.987 125.973 260.993C125.893 260.995 125.413 261.004 125.1 260.561C124.781 260.111 124.957 259.656 124.989 259.577C125.079 259.353 125.239 259.185 125.286 259.134L126.751 260.497ZM125.957 258.913C126.081 258.851 126.192 258.797 126.283 258.756C126.328 258.736 126.38 258.714 126.433 258.695C126.454 258.688 126.586 258.637 126.748 258.625C126.798 258.621 126.887 258.618 126.995 258.636C127.097 258.653 127.291 258.702 127.479 258.861C127.695 259.045 127.811 259.299 127.83 259.552C127.847 259.768 127.789 259.935 127.755 260.016C127.69 260.173 127.599 260.275 127.576 260.302C127.538 260.345 127.503 260.379 127.48 260.4C127.399 260.473 127.299 260.547 127.218 260.604L126.061 258.973C126.14 258.916 126.15 258.905 126.131 258.923C126.123 258.93 126.1 258.952 126.071 258.984C126.057 259.001 125.972 259.095 125.909 259.246C125.877 259.323 125.82 259.487 125.836 259.701C125.855 259.952 125.97 260.204 126.185 260.386C126.37 260.544 126.563 260.591 126.661 260.608C126.766 260.626 126.85 260.623 126.895 260.619C126.985 260.613 127.05 260.595 127.068 260.59C127.094 260.583 127.111 260.577 127.116 260.575C127.125 260.572 127.12 260.573 127.096 260.584C127.05 260.604 126.973 260.641 126.861 260.698L125.957 258.913ZM127.218 260.604C126.735 260.947 125.259 261.769 122.399 263.296C119.501 264.844 115.109 267.152 108.716 270.492L107.79 268.72C114.183 265.379 118.568 263.075 121.457 261.532C124.385 259.968 125.709 259.222 126.061 258.973L127.218 260.604ZM108.716 270.492C101.958 274.024 92.1696 279.15 86.9639 281.884L86.0339 280.113C91.2412 277.378 101.031 272.252 107.79 268.72L108.716 270.492ZM86.9639 281.884C81.7572 284.619 75.5342 287.871 73.1348 289.112L72.2161 287.336C74.6095 286.098 80.8277 282.848 86.0339 280.113L86.9639 281.884ZM73.1348 289.112C61.3108 295.227 54.9815 300.001 50.9938 305.626L49.3623 304.469C53.6336 298.444 60.3147 293.49 72.2161 287.336L73.1348 289.112ZM50.9938 305.626C49.5113 307.717 48.7305 309.548 48.5412 311.129C48.3559 312.676 48.7286 314.036 49.6694 315.262C50.6312 316.516 52.2247 317.676 54.5482 318.695C56.8658 319.711 59.8514 320.56 63.5238 321.226L63.167 323.194C59.4008 322.511 56.2523 321.626 53.7451 320.526C51.2439 319.43 49.322 318.095 48.0827 316.48C46.8224 314.837 46.3083 312.954 46.5554 310.891C46.7984 308.862 47.7691 306.716 49.3623 304.469L50.9938 305.626ZM63.5238 321.226C78.4063 323.925 95.3279 324.281 147.96 322.945L148.011 324.944C95.4351 326.279 78.2919 325.936 63.167 323.194L63.5238 321.226ZM147.96 322.945C191.483 321.841 210.724 321.928 229.131 323.325L228.98 325.319C210.683 323.931 191.532 323.84 148.011 324.944L147.96 322.945ZM229.131 323.325C238.12 324.007 245.406 324.967 250.935 326.204C256.411 327.428 260.34 328.96 262.439 330.902L261.081 332.37C259.406 330.82 255.949 329.374 250.499 328.155C245.102 326.949 237.922 325.998 228.98 325.319L229.131 323.325ZM262.439 330.903C263.414 331.805 264.036 333.07 264.298 334.367C264.559 335.664 264.477 337.078 263.939 338.303L262.108 337.5C262.453 336.713 262.532 335.728 262.337 334.762C262.142 333.797 261.691 332.936 261.08 332.37L262.439 330.903ZM263.939 338.303C262.635 341.275 259.175 344.376 253.911 347.637C248.597 350.929 241.266 354.489 231.962 358.313C213.351 365.962 186.728 374.71 152.287 384.486L151.741 382.562C186.155 372.793 212.694 364.069 231.202 356.463C240.458 352.659 247.676 349.146 252.858 345.936C258.089 342.696 261.069 339.867 262.108 337.5L263.939 338.303ZM152.287 384.486C140.99 387.693 129.055 390.948 119.452 393.471C109.89 395.983 102.553 397.793 100.52 398.08L100.241 396.099C102.126 395.834 109.314 394.066 118.944 391.536C128.533 389.017 140.456 385.765 151.741 382.562L152.287 384.486ZM118.051 258.501C117.742 258.507 117.347 258.478 117.014 258.312C116.859 258.235 116.517 258.028 116.393 257.585C116.252 257.078 116.502 256.688 116.669 256.508L118.134 257.869C118.217 257.78 118.439 257.476 118.319 257.047C118.217 256.681 117.946 256.542 117.905 256.522C117.801 256.47 117.805 256.506 118.012 256.502L118.051 258.501ZM116.67 256.507C116.72 256.453 116.619 256.542 116.551 256.721C116.524 256.792 116.385 257.185 116.651 257.592C116.925 258.01 117.354 258.032 117.442 258.034C117.569 258.036 117.659 258.011 117.673 258.007C117.701 257.999 117.713 257.994 117.704 257.997C117.687 258.004 117.642 258.024 117.564 258.066L116.627 256.299C116.738 256.24 116.849 256.186 116.955 256.143C117.01 256.121 117.227 256.029 117.481 256.034C117.595 256.036 118.042 256.065 118.325 256.497C118.599 256.917 118.459 257.329 118.423 257.426C118.336 257.656 118.178 257.822 118.134 257.87L116.67 256.507ZM117.563 258.066C117.479 258.111 117.478 258.12 117.512 258.09C117.53 258.075 117.588 258.022 117.645 257.929C117.705 257.832 117.786 257.655 117.775 257.42C117.753 256.902 117.357 256.693 117.331 256.68C117.265 256.645 117.242 256.648 117.325 256.666L116.906 258.622C116.766 258.592 116.575 258.543 116.396 258.448C116.257 258.374 115.803 258.099 115.777 257.507C115.754 256.981 116.104 256.665 116.196 256.585C116.335 256.462 116.496 256.368 116.628 256.299L117.563 258.066ZM117.325 256.666C117.563 256.717 117.99 256.846 118.266 257.221C118.435 257.45 118.553 257.79 118.456 258.17C118.368 258.514 118.146 258.728 117.988 258.842L116.815 257.222C116.753 257.267 116.586 257.407 116.518 257.677C116.44 257.983 116.539 258.249 116.656 258.407C116.757 258.543 116.863 258.599 116.887 258.611C116.922 258.628 116.932 258.627 116.906 258.622L117.325 256.666ZM117.988 258.842C117.99 258.841 118 258.833 118.016 258.82C118.029 258.809 118.06 258.782 118.098 258.74C118.125 258.71 118.213 258.609 118.274 258.449C118.342 258.273 118.42 257.889 118.156 257.518C117.936 257.209 117.629 257.139 117.543 257.122C117.429 257.1 117.34 257.104 117.308 257.106C117.267 257.109 117.237 257.114 117.224 257.116C117.21 257.119 117.201 257.121 117.2 257.121C117.198 257.122 117.208 257.119 117.233 257.111C117.256 257.104 117.287 257.093 117.326 257.079C117.404 257.051 117.505 257.012 117.625 256.961L118.397 258.806C118.129 258.918 117.867 259.017 117.674 259.064C117.626 259.076 117.538 259.096 117.435 259.102C117.387 259.105 117.284 259.109 117.161 259.085C117.065 259.067 116.751 258.993 116.527 258.679C116.26 258.304 116.338 257.913 116.408 257.729C116.473 257.561 116.568 257.451 116.605 257.41C116.688 257.316 116.776 257.251 116.815 257.222L117.988 258.842ZM117.625 256.961C117.846 256.869 117.979 256.811 118.053 256.774C118.095 256.753 118.08 256.757 118.042 256.784C118.025 256.797 117.965 256.84 117.898 256.916C117.846 256.977 117.682 257.178 117.665 257.498C117.645 257.892 117.853 258.171 118.026 258.311C118.169 258.426 118.305 258.467 118.343 258.479C118.43 258.504 118.484 258.504 118.444 258.501C118.387 258.498 118.27 258.497 118.051 258.501L118.011 256.502C118.217 256.498 118.417 256.495 118.571 256.505C118.637 256.509 118.77 256.519 118.909 256.561C118.973 256.579 119.128 256.63 119.284 256.755C119.469 256.905 119.684 257.196 119.663 257.603C119.645 257.936 119.474 258.152 119.407 258.229C119.327 258.321 119.246 258.382 119.201 258.414C119.109 258.48 119.011 258.531 118.945 258.564C118.802 258.635 118.61 258.717 118.397 258.806L117.625 256.961Z" fill="#EA7889" mask="url(#path-3-inside-1_4_81)"/>
<path d="M139.365 264.381C139.365 264.381 139.365 264.381 139.366 264.382L139.366 264.382M139.365 264.381L139.366 264.382L139.366 264.382M139.365 264.381C139.365 264.381 139.366 264.382 139.366 264.382M139.365 264.381L139.366 264.382M111.589 392.405L111.589 392.405C112.488 392.96 113.411 393.078 116.001 392.728C117.705 392.497 124.12 390.919 132.663 388.667C141.185 386.421 151.779 383.517 161.805 380.651C192.377 371.911 215.951 364.054 232.382 357.148C240.599 353.694 247.014 350.484 251.62 347.528C256.25 344.557 258.969 341.893 259.92 339.565C260.258 338.738 260.317 337.721 260.117 336.739C259.916 335.757 259.465 334.855 258.837 334.243C257.238 332.69 254.045 331.281 249.171 330.08C244.321 328.885 237.89 327.913 229.902 327.176C213.556 325.669 196.466 325.367 157.682 325.905C110.818 326.556 95.5732 326.039 82.1046 323.314C75.4413 321.965 70.9443 319.899 68.8307 317.032C67.7592 315.578 67.3122 313.934 67.497 312.126C67.6803 310.334 68.4819 308.407 69.8556 306.357C73.5405 300.856 79.3733 296.336 89.9 290.726C92.0206 289.596 97.5277 286.629 102.138 284.132L102.376 284.572L102.138 284.132C106.749 281.636 115.417 276.955 121.402 273.731C127.063 270.682 130.947 268.577 133.507 267.167C135.056 266.314 136.108 265.722 136.773 265.332C136.938 265.235 137.08 265.15 137.199 265.077L136.99 264.892C136.99 264.892 136.99 264.892 136.99 264.892C137.139 264.724 137.344 264.606 137.53 264.53C137.721 264.454 137.946 264.4 138.166 264.403C138.364 264.406 138.706 264.28 138.976 264.097C138.973 264.093 138.971 264.089 138.969 264.085C138.919 263.997 138.866 263.838 138.933 263.656C138.993 263.494 139.113 263.414 139.169 263.383C139.23 263.349 139.285 263.334 139.315 263.328C139.418 263.304 139.536 263.306 139.611 263.309C139.707 263.312 139.825 263.32 139.964 263.333C139.963 263.333 139.962 263.333 139.962 263.333C139.962 263.332 139.995 263.332 140.076 263.315C140.16 263.297 140.27 263.266 140.407 263.22C140.679 263.129 141.028 262.989 141.433 262.81C142.243 262.451 143.247 261.947 144.266 261.396C145.283 260.845 146.307 260.25 147.153 259.711C148.015 259.163 148.649 258.7 148.927 258.411C149.512 257.8 149.575 257.37 149.498 257.106C149.414 256.818 149.098 256.488 148.414 256.233C147.064 255.729 144.708 255.694 142.103 256.498C141.02 256.832 138.851 257.856 136.63 259.096C135.03 259.989 132.519 261.353 130.423 262.47C130.523 262.471 130.611 262.473 130.683 262.479C130.737 262.483 130.82 262.492 130.902 262.518C130.94 262.53 131.021 262.559 131.099 262.626C131.191 262.705 131.29 262.847 131.283 263.042C131.276 263.206 131.196 263.317 131.159 263.362C131.116 263.414 131.071 263.449 131.043 263.47C130.985 263.513 130.92 263.549 130.865 263.577C130.751 263.635 130.592 263.706 130.402 263.787C130.166 263.888 129.955 263.967 129.813 264.002C129.778 264.01 129.724 264.022 129.664 264.025C129.635 264.027 129.58 264.028 129.514 264.014C129.459 264.002 129.306 263.96 129.198 263.803C129.133 263.709 129.111 263.612 129.109 263.529C129.049 263.508 128.989 263.482 128.933 263.451C128.895 263.429 128.838 263.393 128.782 263.339C126.52 264.527 122.382 266.739 119.542 268.278C112.776 271.945 87.5356 285.576 81.695 288.718C72.4638 293.683 66.0727 298.2 61.7601 302.778C56.5514 308.306 54.5901 312.642 55.08 317.031C55.4003 319.897 57.3083 322.378 61.015 324.458C64.7281 326.542 70.1813 328.183 77.4318 329.371C90.8399 331.568 109.428 332.178 146.224 331.611C194.071 330.874 212.268 331.285 229.813 333.509C236.529 334.361 241.298 335.357 244.213 336.574C245.665 337.18 246.726 337.868 247.318 338.68C247.942 339.536 248.013 340.486 247.578 341.46C247.075 342.588 245.869 343.79 244.118 345.059C242.351 346.34 239.961 347.734 237.001 349.229C231.078 352.218 222.82 355.632 212.558 359.351C192.032 366.792 163.442 375.476 129.382 384.466C121.324 386.592 117.153 387.706 114.82 388.503C113.655 388.9 112.983 389.208 112.524 389.504C112.079 389.792 111.816 390.081 111.481 390.495L111.481 390.495C111.002 391.088 110.888 391.437 110.907 391.651C110.923 391.83 111.053 392.074 111.589 392.405ZM139.684 263.431C139.684 263.431 139.684 263.431 139.684 263.431L139.684 263.431Z" fill="#7C90E9" stroke="#7C90E9"/>
<path d="M103.168 387.147L103.168 387.147C104.116 387.688 105.102 387.788 107.844 387.397C109.65 387.139 116.446 385.467 125.492 383.092C134.518 380.723 145.74 377.668 156.362 374.659C188.751 365.484 213.747 357.301 231.195 350.177C239.919 346.615 246.742 343.324 251.653 340.313C256.59 337.286 259.507 334.594 260.55 332.266C260.92 331.442 260.998 330.439 260.804 329.476C260.611 328.512 260.154 327.631 259.504 327.038C257.843 325.523 254.495 324.177 249.369 323.065C244.271 321.959 237.502 321.101 229.088 320.502C211.869 319.277 193.847 319.26 152.933 320.435C103.494 321.855 87.4294 321.594 73.2754 319.114L73.3617 318.622L73.2754 319.114C69.7584 318.498 66.8378 317.696 64.5266 316.704C62.2185 315.713 60.4875 314.52 59.3874 313.103C58.2763 311.673 57.8291 310.039 58.055 308.234C58.2786 306.448 59.1575 304.523 60.6382 302.469C64.6115 296.957 70.8309 292.382 82.022 286.646C84.2775 285.49 90.135 282.455 95.0385 279.903C99.9426 277.35 109.163 272.565 115.528 269.268C121.549 266.15 125.68 263.998 128.404 262.557C130.061 261.68 131.184 261.073 131.893 260.674C131.901 260.592 131.925 260.532 131.933 260.511C131.984 260.387 132.08 260.284 132.128 260.233C132.283 260.07 132.493 259.953 132.685 259.878C132.881 259.8 133.111 259.746 133.333 259.745C133.561 259.745 133.938 259.606 134.23 259.416C134.176 259.32 134.126 259.155 134.2 258.971C134.265 258.811 134.388 258.736 134.438 258.709C134.496 258.679 134.549 258.664 134.578 258.658C134.677 258.635 134.795 258.635 134.875 258.636C134.974 258.638 135.098 258.644 135.243 258.654C135.243 258.654 135.243 258.654 135.244 258.654C135.25 258.654 135.29 258.652 135.379 258.633C135.471 258.613 135.59 258.58 135.736 258.532C136.028 258.436 136.4 258.291 136.832 258.106C137.693 257.736 138.763 257.218 139.846 256.654C140.93 256.09 142.02 255.483 142.923 254.934C143.842 254.375 144.523 253.903 144.824 253.608C145.462 252.981 145.523 252.558 145.452 252.319C145.373 252.052 145.055 251.728 144.326 251.482C142.899 251.001 140.402 251.006 137.631 251.85C136.477 252.201 134.168 253.255 131.804 254.522C130.111 255.43 127.456 256.816 125.233 257.956C125.323 257.955 125.403 257.956 125.469 257.96C125.525 257.964 125.608 257.97 125.689 257.994C125.726 258.004 125.808 258.031 125.889 258.095C125.986 258.172 126.097 258.321 126.086 258.531C126.076 258.702 125.987 258.813 125.951 258.854C125.907 258.903 125.862 258.937 125.834 258.957C125.776 258.998 125.709 259.033 125.652 259.061C125.533 259.12 125.365 259.192 125.163 259.276C124.913 259.379 124.694 259.46 124.549 259.495C124.514 259.504 124.46 259.516 124.402 259.519C124.375 259.521 124.322 259.523 124.258 259.511C124.21 259.502 124.05 259.466 123.936 259.308C123.869 259.215 123.844 259.12 123.841 259.036C123.78 259.017 123.72 258.994 123.664 258.965C123.624 258.945 123.557 258.905 123.492 258.843C121.094 260.054 116.666 262.331 113.63 263.912C106.434 267.661 79.5878 281.599 73.3759 284.811C63.5549 289.89 56.7345 294.48 52.106 299.096C46.5131 304.673 44.3798 309.006 44.8224 313.336C45.1109 316.154 47.0693 318.58 50.9512 320.585C54.8364 322.593 60.5652 324.131 68.1959 325.191C82.3061 327.149 101.906 327.446 140.724 326.276C191.2 324.754 210.382 324.861 228.845 326.777C235.914 327.51 240.922 328.419 243.972 329.577C245.489 330.152 246.597 330.816 247.211 331.616C247.525 332.025 247.713 332.475 247.751 332.96C247.789 333.443 247.675 333.925 247.445 334.398C246.897 335.523 245.61 336.731 243.746 338.016C241.864 339.313 239.323 340.735 236.178 342.265C229.885 345.327 221.121 348.848 210.238 352.707C188.468 360.426 158.173 369.512 122.102 378.991C113.569 381.234 109.15 382.408 106.672 383.238C105.435 383.652 104.716 383.97 104.222 384.275C103.741 384.572 103.455 384.867 103.095 385.283L102.717 384.956L103.095 385.283C102.575 385.885 102.455 386.232 102.47 386.431C102.482 386.588 102.601 386.823 103.168 387.147ZM132.345 260.249C132.345 260.249 132.345 260.249 132.346 260.249C132.342 260.25 132.342 260.25 132.345 260.249ZM135.095 258.914C135.052 258.841 135 258.799 134.982 258.785L134.857 259.136C134.935 259.137 135.037 259.141 135.163 259.15C135.16 259.051 135.128 258.968 135.095 258.914ZM137.486 251.371C143.146 249.648 147.93 251.262 145.174 253.965L124.98 257.96C124.979 257.96 124.979 257.96 124.978 257.96C124.968 257.897 124.944 257.83 124.9 257.762C124.862 257.705 124.819 257.662 124.774 257.629C127.039 256.469 129.818 255.019 131.568 254.082C133.936 252.812 136.281 251.738 137.486 251.371ZM124.984 258.083C124.984 258.086 124.984 258.089 124.983 258.092L124.987 258.265C125.084 258.223 125.157 258.191 125.21 258.165C125.247 258.146 125.261 258.138 125.261 258.138C125.261 258.138 125.26 258.138 125.259 258.139C125.258 258.139 125.254 258.142 125.247 258.148C125.237 258.156 125.22 258.171 125.201 258.192C125.179 258.217 125.102 258.309 125.088 258.457C125.73 258.445 125.753 258.482 125.149 258.739C125.184 258.8 125.227 258.847 125.267 258.878C125.336 258.933 125.4 258.951 125.412 258.955C125.429 258.959 125.439 258.961 125.439 258.961C125.44 258.961 125.431 258.96 125.41 258.958C125.338 258.954 125.218 258.955 125.032 258.959C125.023 258.959 125.013 258.959 125.003 258.959L125.003 258.959C124.991 258.96 124.979 258.96 124.967 258.96C124.966 258.966 124.964 258.973 124.962 258.979C124.913 259.167 124.788 259.289 124.689 259.36C124.682 259.365 124.683 259.365 124.689 259.36C124.695 259.355 124.707 259.344 124.721 259.329C124.732 259.316 124.776 259.268 124.806 259.19C124.826 259.141 124.848 259.056 124.838 258.959C124.772 258.956 124.705 258.951 124.64 258.943C124.556 258.974 124.487 258.995 124.437 259.008C124.328 259.035 124.306 259.019 124.398 258.954C124.419 258.939 124.435 258.924 124.448 258.908C124.412 258.899 124.377 258.889 124.343 258.877C124.306 258.864 124.27 258.849 124.236 258.833C124.198 258.815 124.149 258.787 124.099 258.748C124.07 258.726 124.041 258.7 124.014 258.67C124.007 258.687 124 258.705 123.995 258.726L124.984 258.083ZM134.649 259.715C134.649 259.715 134.649 259.714 134.648 259.714C134.649 259.714 134.649 259.715 134.65 259.715L134.649 259.715Z" fill="#F6E278" fill-opacity="0.88" stroke="#F6E278"/>
<path d="M96.6951 304.709L96.5636 306.027C96.2268 305.993 95.8604 305.972 95.4645 305.965C95.0832 305.959 94.7604 305.961 94.4962 305.972C94.2647 307.581 94.1042 309.332 94.0148 311.223L92.475 311.198C92.3932 310.815 92.3574 310.308 92.3677 309.678C92.3779 309.047 92.4014 308.505 92.4381 308.05C92.4898 307.582 92.5486 307.121 92.6147 306.667C92.6807 306.214 92.7143 305.95 92.7155 305.877C92.5105 305.859 92.0267 305.844 91.2641 305.831C90.5015 305.819 89.9734 305.825 89.6796 305.849C87.9413 308.109 86.3439 309.822 84.8874 310.986C83.4312 312.136 81.9845 312.699 80.5473 312.676C79.8434 312.664 79.2603 312.442 78.798 312.009C78.3209 311.576 78.0882 311.007 78.0996 310.304C78.1213 308.969 79.153 307.768 81.1946 306.701C83.2509 305.635 85.8953 304.937 89.1277 304.608C89.5185 304.028 90.2444 303.138 91.3054 301.937C92.3667 300.722 93.4106 299.669 94.4373 298.776C94.8939 297.756 95.2501 297.051 95.5058 296.659C95.7765 296.253 96.0365 296.051 96.2858 296.055C96.5351 296.06 96.7388 296.158 96.897 296.351C97.0552 296.545 97.1318 296.795 97.1268 297.103C97.1221 297.397 96.9463 297.834 96.5994 298.415C96.2675 298.982 95.9157 299.871 95.5439 301.082C95.1724 302.279 94.9119 303.411 94.7625 304.48C95.5251 304.492 96.1693 304.569 96.6951 304.709ZM85.4018 309.124C86.6378 307.985 87.5722 306.901 88.2051 305.869C85.739 305.976 83.8251 306.407 82.4633 307.162C81.1161 307.918 80.4354 308.735 80.4211 309.615C80.4149 309.997 80.5347 310.299 80.7804 310.523C81.0408 310.747 81.3836 310.863 81.8089 310.87C82.9527 310.889 84.1504 310.307 85.4018 309.124ZM93.0028 304.451C93.1135 303.954 93.2556 303.333 93.4291 302.588C93.6175 301.828 93.7274 301.383 93.7589 301.251C93.044 301.914 92.5447 302.405 92.2608 302.723C91.9771 303.026 91.4761 303.62 90.7576 304.503C91.0072 304.492 91.3079 304.49 91.6599 304.495C92.0267 304.487 92.3276 304.477 92.5625 304.466C92.7973 304.455 92.9441 304.45 93.0028 304.451ZM101.243 309.228L101.699 309.609C101.188 310.378 100.746 310.936 100.373 311.282C100.016 311.614 99.6174 311.776 99.1774 311.769C98.7375 311.761 98.3811 311.58 98.1082 311.223C97.8352 310.867 97.7031 310.424 97.7117 309.897C97.7284 308.87 98.4389 306.674 99.8431 303.308C101.248 299.928 102.682 296.959 104.147 294.401L105.106 294.945C103.623 297.708 102.28 300.458 101.077 303.196C99.874 305.92 99.2626 307.883 99.2431 309.085C99.2319 309.775 99.4829 310.123 99.9962 310.132C100.407 310.138 100.822 309.837 101.243 309.228ZM111.082 302.897L110.87 303.752C110.621 303.718 110.299 303.698 109.903 303.692C108.436 303.668 107.695 304.14 107.68 305.108C107.676 305.313 107.96 305.919 108.53 306.926C109.115 307.933 109.405 308.605 109.399 308.942C109.387 309.734 109.105 310.353 108.555 310.799C108.02 311.23 107.305 311.439 106.411 311.424C105.179 311.404 104.2 310.706 103.474 309.33L104.32 308.75C104.523 308.914 104.739 309.116 104.97 309.355C105.201 309.578 105.375 309.735 105.491 309.825C105.765 310.079 106.071 310.209 106.408 310.214C106.746 310.219 107.041 310.107 107.294 309.876C107.547 309.631 107.677 309.333 107.683 308.981C107.689 308.614 107.377 307.934 106.748 306.941C106.133 305.948 105.829 305.254 105.835 304.858C105.847 304.139 106.157 303.594 106.764 303.223C107.386 302.852 108.189 302.674 109.171 302.69C110.168 302.706 110.805 302.775 111.082 302.897ZM120.504 309.431L121.004 309.813C120.792 310.25 120.403 310.662 119.84 311.049C119.291 311.436 118.789 311.626 118.334 311.618C117.469 311.604 117.044 311.142 117.059 310.233C117.066 309.808 117.184 309.304 117.413 308.721L116.586 309.543C115.781 310.337 115.083 310.869 114.492 311.138C113.915 311.407 113.348 311.537 112.791 311.528C112.234 311.519 111.811 311.358 111.523 311.045C111.249 310.718 111.117 310.276 111.126 309.719C111.143 308.692 111.555 307.687 112.363 306.702C113.172 305.703 114.197 304.899 115.439 304.288C116.681 303.678 117.918 303.375 119.15 303.38L119.183 304.107L118.255 304.29C116.916 304.562 115.726 305.129 114.685 305.992C113.659 306.855 113.139 307.727 113.125 308.607C113.11 309.472 113.455 309.911 114.159 309.922C114.819 309.933 115.641 309.484 116.624 308.576C117.606 307.668 118.431 306.596 119.096 305.36L120.011 305.925C119.072 307.743 118.598 308.901 118.59 309.4C118.587 309.605 118.65 309.782 118.78 309.931C118.924 310.066 119.063 310.134 119.194 310.136C119.341 310.138 119.437 310.133 119.481 310.119C119.525 310.105 119.569 310.091 119.614 310.077C119.658 310.048 119.71 310.012 119.769 309.969C119.843 309.926 119.903 309.883 119.947 309.84C120.007 309.797 120.096 309.733 120.215 309.646C120.333 309.56 120.43 309.489 120.504 309.431ZM124.808 309.611L125.264 309.993C124.753 310.762 124.311 311.319 123.939 311.665C123.581 311.997 123.183 312.159 122.743 312.152C122.303 312.145 121.946 311.963 121.673 311.606C121.4 311.25 121.268 310.808 121.277 310.28C121.294 309.253 122.004 307.057 123.408 303.692C124.813 300.311 126.247 297.342 127.712 294.784L128.671 295.328C127.189 298.091 125.846 300.842 124.642 303.58C123.439 306.303 122.828 308.266 122.808 309.469C122.797 310.158 123.048 310.507 123.561 310.515C123.972 310.522 124.388 310.22 124.808 309.611ZM130.78 309.708L131.236 310.09C130.725 310.859 130.283 311.416 129.911 311.762C129.553 312.094 129.154 312.256 128.715 312.249C128.275 312.242 127.918 312.06 127.645 311.704C127.372 311.347 127.24 310.905 127.249 310.377C127.265 309.35 127.976 307.154 129.38 303.789C130.785 300.409 132.219 297.439 133.684 294.882L134.643 295.425C133.16 298.188 131.818 300.939 130.614 303.677C129.411 306.4 128.8 308.363 128.78 309.566C128.769 310.255 129.02 310.604 129.533 310.612C129.944 310.619 130.359 310.318 130.78 309.708ZM142.759 309.793L143.259 310.175C143.046 310.612 142.658 311.024 142.095 311.411C141.546 311.798 141.044 311.988 140.589 311.98C139.724 311.966 139.299 311.504 139.313 310.595C139.32 310.17 139.439 309.666 139.668 309.083L138.841 309.905C138.036 310.699 137.338 311.231 136.746 311.5C136.17 311.769 135.603 311.899 135.046 311.89C134.489 311.881 134.066 311.72 133.778 311.407C133.504 311.08 133.372 310.638 133.381 310.081C133.398 309.054 133.81 308.049 134.618 307.064C135.427 306.065 136.452 305.261 137.694 304.65C138.936 304.04 140.173 303.737 141.405 303.742L141.437 304.469L140.51 304.652C139.171 304.924 137.981 305.491 136.94 306.354C135.914 307.218 135.394 308.089 135.379 308.969C135.365 309.834 135.71 310.273 136.414 310.284C137.074 310.295 137.895 309.846 138.878 308.938C139.861 308.03 140.685 306.958 141.351 305.722L142.266 306.287C141.327 308.105 140.853 309.263 140.845 309.762C140.842 309.967 140.905 310.144 141.035 310.293C141.179 310.428 141.317 310.496 141.449 310.498C141.596 310.5 141.691 310.495 141.736 310.481C141.78 310.467 141.824 310.453 141.868 310.439C141.913 310.41 141.965 310.374 142.024 310.331C142.098 310.289 142.158 310.245 142.202 310.202C142.262 310.159 142.351 310.095 142.469 310.009C142.588 309.922 142.685 309.851 142.759 309.793ZM152.521 309.93L153.063 310.423C152.189 311.802 151.276 312.484 150.323 312.469C149.736 312.459 149.142 312.017 148.54 311.141C147.938 310.266 147.642 309.55 147.651 308.993C147.657 308.641 148.191 308.297 149.252 307.963C149.65 307.837 150.013 307.645 150.34 307.386C150.681 307.113 150.855 306.83 150.86 306.537C150.864 306.243 150.787 306.022 150.628 305.873C150.47 305.709 150.266 305.625 150.016 305.621C148.401 305.741 146.679 307.884 144.851 312.05L143.517 311.566C143.527 310.935 144.419 308.397 146.193 303.952C147.981 299.507 149.243 296.822 149.977 295.895L151.048 296.308C149.012 299.722 147.29 303.699 145.881 308.238C147.053 306.541 148.054 305.413 148.885 304.854C149.715 304.296 150.504 304.022 151.252 304.035C151.707 304.042 152.064 304.187 152.323 304.47C152.597 304.753 152.731 305.115 152.724 305.555C152.717 305.98 152.601 306.367 152.375 306.715C152.164 307.064 151.858 307.367 151.458 307.624C150.88 307.996 150.17 308.359 149.328 308.712C149.449 309.403 149.668 309.928 149.984 310.285C150.301 310.642 150.665 310.824 151.076 310.831C151.296 310.834 151.777 310.534 152.521 309.93ZM162.082 310.724L162.581 311.15C161.948 312.166 161.141 312.667 160.158 312.651C159.308 312.637 158.889 312.212 158.903 311.376C158.911 310.892 159.128 310.125 159.556 309.076C159.999 308.013 160.223 307.312 160.228 306.975C160.235 306.55 159.967 306.333 159.425 306.324C158.882 306.315 158.132 306.89 157.175 308.047C156.232 309.191 155.433 310.527 154.777 312.057L153.487 311.574C154.312 307.759 156.389 302.666 159.72 296.295L160.792 296.665C159.111 299.894 157.903 302.463 157.168 304.373C156.403 306.355 155.826 307.996 155.438 309.295C156.597 307.451 157.586 306.177 158.405 305.471C159.238 304.766 159.955 304.418 160.556 304.428C161.641 304.446 162.177 304.843 162.165 305.62C162.157 306.104 161.871 306.965 161.309 308.203C160.746 309.44 160.461 310.265 160.454 310.675C160.448 311.086 160.642 311.294 161.038 311.301C161.243 311.304 161.591 311.112 162.082 310.724ZM185.065 308.721L186.627 308.725L186.613 309.626C186.437 309.594 186.232 309.576 185.997 309.572C185.763 309.569 185.499 309.579 185.205 309.604C185.186 310.733 184.625 311.868 183.521 313.009C182.417 314.149 181.089 315.067 179.538 315.76C178.001 316.469 176.572 316.812 175.253 316.791C174.563 316.779 174.002 316.594 173.567 316.235C173.148 315.876 172.943 315.411 172.952 314.839C172.966 313.988 173.545 313.11 174.689 312.205C175.833 311.299 177.166 310.558 178.686 309.982C180.206 309.405 181.576 309.075 182.794 308.992C182.651 308.77 182.427 308.576 182.122 308.409C181.817 308.243 181.19 307.983 180.242 307.631C179.295 307.263 178.626 306.871 178.237 306.454C177.848 306.022 177.66 305.425 177.672 304.662C177.685 303.9 178.109 303.034 178.947 302.065C179.784 301.096 180.765 300.29 181.89 299.648C183.03 298.992 184.026 298.671 184.876 298.685C185.258 298.691 185.571 298.835 185.815 299.118C186.06 299.386 186.18 299.718 186.173 300.114C186.163 300.759 185.761 301.567 184.968 302.537C184.175 303.492 183.297 304.218 182.336 304.716L181.82 303.96C182.397 303.676 182.903 303.229 183.338 302.62C183.788 301.997 184.017 301.458 184.025 301.003C184.032 300.549 183.794 300.317 183.31 300.309C182.621 300.298 181.822 300.718 180.913 301.569C180.019 302.405 179.566 303.197 179.554 303.945C179.546 304.458 179.671 304.864 179.93 305.161C180.19 305.459 180.851 305.836 181.914 306.294C182.978 306.736 183.734 307.13 184.183 307.475C184.633 307.805 184.927 308.22 185.065 308.721ZM175.161 314.303C175.15 315.007 175.716 315.368 176.86 315.387C177.49 315.397 178.308 315.175 179.313 314.722C180.332 314.284 181.23 313.653 182.006 312.83C182.797 312.021 183.199 311.184 183.213 310.319C183.215 310.217 183.195 310.062 183.154 309.856C181.142 310.014 179.307 310.549 177.65 311.461C176.007 312.373 175.177 313.32 175.161 314.303ZM196.914 310.674L197.414 311.056C197.201 311.493 196.813 311.905 196.25 312.292C195.701 312.679 195.199 312.869 194.744 312.861C193.879 312.847 193.454 312.385 193.468 311.476C193.475 311.051 193.594 310.547 193.823 309.964L192.996 310.786C192.191 311.58 191.493 312.111 190.901 312.381C190.325 312.65 189.758 312.78 189.201 312.771C188.644 312.762 188.221 312.601 187.932 312.288C187.659 311.961 187.527 311.519 187.536 310.962C187.553 309.935 187.965 308.93 188.773 307.945C189.582 306.946 190.607 306.142 191.849 305.531C193.091 304.921 194.328 304.618 195.56 304.623L195.592 305.35L194.665 305.533C193.326 305.804 192.136 306.372 191.095 307.235C190.069 308.098 189.549 308.97 189.534 309.85C189.52 310.715 189.865 311.154 190.569 311.165C191.229 311.176 192.05 310.727 193.033 309.819C194.016 308.911 194.84 307.839 195.506 306.603L196.421 307.168C195.482 308.986 195.008 310.144 195 310.643C194.997 310.848 195.06 311.025 195.19 311.174C195.334 311.309 195.472 311.377 195.604 311.379C195.751 311.381 195.846 311.376 195.891 311.362C195.935 311.348 195.979 311.334 196.023 311.32C196.068 311.291 196.12 311.255 196.179 311.212C196.253 311.169 196.312 311.126 196.357 311.083C196.417 311.04 196.506 310.976 196.624 310.889C196.743 310.803 196.84 310.732 196.914 310.674ZM207.012 310.398L207.468 310.758C207.135 311.398 206.679 311.933 206.1 312.364C205.536 312.795 205.026 313.006 204.572 312.999C204.117 312.992 203.76 312.854 203.5 312.586C203.241 312.317 203.114 311.985 203.12 311.589C203.127 311.193 203.387 310.508 203.902 309.534C204.431 308.545 204.7 307.816 204.708 307.346C204.711 307.141 204.626 306.956 204.453 306.792C204.294 306.614 204.098 306.522 203.863 306.519C203.115 306.506 202.351 307.066 201.569 308.198C200.788 309.314 199.911 310.936 198.938 313.061L197.626 312.578C197.932 310.881 198.355 309.231 198.894 307.626C199.449 306.007 199.952 304.849 200.403 304.152L201.3 304.453C200.873 305.487 200.323 307.275 199.651 309.817C201.731 306.389 203.621 304.688 205.322 304.716C205.689 304.722 205.988 304.852 206.218 305.105C206.463 305.358 206.583 305.653 206.578 305.991C206.572 306.328 206.523 306.635 206.431 306.912C206.339 307.175 206.05 307.801 205.564 308.791C205.094 309.766 204.856 310.378 204.852 310.627C204.848 310.877 204.918 311.076 205.063 311.225C205.207 311.359 205.345 311.427 205.477 311.43C205.609 311.432 205.72 311.411 205.808 311.369C205.897 311.326 205.993 311.262 206.097 311.176C206.216 311.089 206.32 311.011 206.409 310.939C206.499 310.867 206.603 310.773 206.722 310.658C206.856 310.528 206.953 310.441 207.012 310.398ZM212.595 303.822C211.774 303.809 211.369 303.472 211.379 302.812C211.385 302.446 211.493 302.139 211.702 301.894C211.912 301.648 212.178 301.527 212.5 301.532C212.823 301.538 213.085 301.637 213.288 301.831C213.49 302.025 213.588 302.276 213.583 302.584C213.578 302.892 213.486 303.177 213.305 303.438C213.125 303.699 212.888 303.827 212.595 303.822ZM212.204 310.307L212.637 310.688C212.274 311.357 211.796 311.928 211.201 312.403C210.622 312.863 210.097 313.089 209.628 313.081C208.807 313.068 208.406 312.489 208.424 311.345C208.447 309.923 209.064 308.077 210.274 305.809C210.546 305.314 210.705 305.024 210.751 304.936L211.687 305.524C211.37 306.076 210.974 306.957 210.5 308.167C210.04 309.377 209.808 310.158 209.802 310.51C209.796 310.847 209.866 311.09 210.01 311.239C210.154 311.388 210.329 311.464 210.534 311.468C210.93 311.474 211.487 311.087 212.204 310.307ZM220.043 310.676L220.543 311.081C220.078 311.704 219.446 312.221 218.647 312.634C217.849 313.032 217.075 313.224 216.328 313.212C215.58 313.2 214.982 312.97 214.534 312.523C214.087 312.076 213.869 311.493 213.881 310.774C213.903 309.425 214.636 308.109 216.079 306.827C217.538 305.546 219 304.917 220.467 304.94C221.434 304.956 221.912 305.345 221.9 306.108C221.887 306.9 221.361 307.691 220.321 308.481C219.296 309.271 217.854 309.981 215.996 310.61C216.122 310.95 216.323 311.217 216.599 311.412C216.874 311.608 217.159 311.708 217.452 311.712C218.083 311.723 218.946 311.377 220.043 310.676ZM215.897 309.949C217.091 309.558 218.119 309.061 218.979 308.459C219.84 307.857 220.274 307.299 220.283 306.786C220.286 306.595 220.215 306.425 220.071 306.276C219.927 306.127 219.759 306.051 219.568 306.048C218.879 306.037 218.124 306.457 217.304 307.309C216.498 308.147 216.029 309.027 215.897 309.949ZM228.506 305.621C228.872 305.627 229.171 305.757 229.401 306.01C229.632 306.263 229.744 306.588 229.738 306.984C229.725 307.775 229.256 308.604 228.333 309.469L227.812 309.042C228.024 308.591 228.132 308.263 228.136 308.058C228.142 307.662 227.926 307.46 227.486 307.453C227.046 307.446 226.623 307.718 226.218 308.268C225.813 308.819 225.33 309.677 224.768 310.841C224.221 311.991 223.805 312.806 223.518 313.285L222.273 312.715C223.11 310.895 223.589 309.825 223.712 309.504C224.126 308.366 224.348 306.918 224.376 305.158L225.614 304.848C225.554 305.801 225.476 306.54 225.38 307.067C225.283 307.578 225.057 308.418 224.701 309.586C226.225 306.926 227.494 305.605 228.506 305.621ZM238.899 311.159L239.355 311.541C239.096 312.152 238.691 312.667 238.142 313.083C237.607 313.5 237.119 313.704 236.68 313.697C236.254 313.69 235.919 313.538 235.675 313.241C235.431 312.929 235.312 312.531 235.32 312.047C235.328 311.563 235.419 310.941 235.593 310.181C234.886 311.255 234.131 312.094 233.329 312.697C232.527 313.3 231.855 313.597 231.313 313.588C230.491 313.575 230.09 312.981 230.109 311.808C230.126 310.811 230.484 309.541 231.184 307.997C231.883 306.454 232.389 305.56 232.701 305.316L233.75 305.795C233.133 306.753 232.663 307.699 232.339 308.632C232.016 309.566 231.852 310.194 231.847 310.516C231.842 310.824 231.933 311.075 232.12 311.269C232.323 311.463 232.556 311.562 232.82 311.566C233.406 311.576 234.141 311.052 235.024 309.996C235.921 308.925 236.842 307.326 237.786 305.2L238.9 305.724C238.868 305.841 238.517 306.686 237.846 308.26C237.19 309.833 236.859 310.781 236.854 311.104C236.849 311.412 236.911 311.647 237.04 311.811C237.184 311.975 237.322 312.058 237.454 312.06C237.601 312.062 237.711 312.057 237.785 312.043C237.858 312.03 237.932 312.001 238.006 311.959C238.08 311.916 238.139 311.88 238.184 311.852C238.243 311.823 238.31 311.773 238.384 311.701L238.563 311.55C238.593 311.506 238.645 311.441 238.72 311.354C238.81 311.253 238.869 311.188 238.899 311.159ZM248.987 311.081L249.443 311.441C249.11 312.081 248.654 312.616 248.075 313.047C247.511 313.477 247.001 313.689 246.547 313.682C246.092 313.674 245.735 313.537 245.475 313.268C245.215 313 245.089 312.668 245.095 312.272C245.102 311.876 245.362 311.191 245.877 310.216C246.406 309.228 246.675 308.499 246.683 308.029C246.686 307.824 246.601 307.639 246.427 307.475C246.269 307.296 246.072 307.205 245.838 307.201C245.09 307.189 244.325 307.749 243.544 308.88C242.763 309.997 241.886 311.618 240.913 313.744L239.6 313.261C239.907 311.564 240.33 309.914 240.869 308.309C241.424 306.69 241.927 305.532 242.378 304.835L243.275 305.135C242.848 306.17 242.298 307.958 241.626 310.499C243.706 307.071 245.596 305.371 247.297 305.399C247.664 305.405 247.963 305.534 248.193 305.788C248.438 306.041 248.558 306.336 248.553 306.674C248.547 307.011 248.498 307.318 248.406 307.595C248.314 307.858 248.025 308.484 247.539 309.473C247.069 310.449 246.831 311.061 246.827 311.31C246.823 311.559 246.893 311.759 247.037 311.908C247.182 312.042 247.32 312.11 247.452 312.112C247.584 312.114 247.695 312.094 247.783 312.052C247.872 312.009 247.968 311.945 248.072 311.858C248.191 311.772 248.295 311.693 248.384 311.621C248.473 311.55 248.578 311.456 248.697 311.34C248.831 311.211 248.928 311.124 248.987 311.081ZM259.424 313.121L259.438 313.649C259.29 313.735 258.618 313.988 257.423 314.409C256.908 317.202 256.186 319.215 255.257 320.446C254.327 321.678 253.203 322.283 251.883 322.262C251.267 322.252 250.779 322.046 250.419 321.644C250.058 321.242 249.884 320.726 249.894 320.095C249.914 318.834 250.513 317.663 251.689 316.582C252.865 315.515 254.426 314.683 256.372 314.084C256.608 313.105 257.027 311.725 257.628 309.946C256.621 311.425 255.71 312.423 254.895 312.937C254.094 313.453 253.371 313.705 252.726 313.694C252.081 313.684 251.593 313.5 251.261 313.142C250.944 312.785 250.79 312.313 250.8 311.727C250.816 310.759 251.235 309.783 252.058 308.799C252.881 307.8 253.906 306.995 255.133 306.385C256.376 305.759 257.569 305.456 258.713 305.475L258.876 306.247C257.246 306.397 255.836 306.946 254.647 307.895C253.473 308.844 252.878 309.766 252.864 310.66C252.857 311.041 252.97 311.359 253.2 311.612C253.431 311.865 253.715 311.994 254.052 312C254.551 312.008 255.314 311.492 256.343 310.453C257.372 309.413 258.098 308.523 258.521 307.782L259.328 308.257C258.486 310.4 257.899 312.209 257.567 313.685L259.424 313.121ZM256.23 314.741C254.944 315.307 253.877 315.994 253.028 316.802C252.178 317.609 251.748 318.35 251.737 319.025C251.732 319.377 251.83 319.665 252.031 319.888C252.233 320.111 252.488 320.225 252.796 320.23C253.412 320.24 254.027 319.818 254.643 318.962C255.258 318.107 255.787 316.7 256.23 314.741Z" fill="#F7E48D"/>
<path fill-rule="evenodd" clip-rule="evenodd" d="M214.948 126.052C210.816 126.136 202.737 135.445 194.911 149.14C190.372 157.081 189.267 159.585 187.617 165.655C185.356 173.977 181.238 181.857 175.99 187.908C170.928 193.741 170.105 193.828 162.172 189.353C155.025 185.322 153.022 185.163 151.151 188.48L150.299 189.991L174.285 203.52C196.845 216.245 198.313 216.976 198.969 215.814C199.353 215.134 199.611 213.629 199.542 212.47C199.429 210.531 198.908 210.074 193.017 206.751C189.496 204.765 186.255 202.525 185.815 201.774C183.452 197.744 191.31 181.246 199.929 172.141C206.557 165.139 211.316 157.459 215.438 147.112C219.631 136.589 220.856 130.52 219.262 128.175C217.825 126.063 217.691 125.996 214.948 126.052ZM216.089 132.846C216.804 135.899 212.058 140.176 210.365 138.004C208.74 135.918 212.499 129.721 214.653 130.936C215.28 131.289 215.926 132.149 216.089 132.846ZM144.222 200.764L139.313 209.466C139.313 209.466 153.945 217.719 163.32 223.007C172.695 228.295 187.326 236.548 187.326 236.548L191.952 227.926L196.579 219.304L172.855 205.682L149.131 192.061L144.222 200.764ZM131.735 223.289C124.243 237.536 122.226 244.236 124.093 248.674L125.22 251.352L125.853 249.255C127.352 244.282 127.953 243.298 127.096 247.217C126.004 252.211 126.168 253.641 127.571 251.361L128.583 249.715L128.043 251.703C127.577 253.421 128.024 254.151 131.327 257.069C133.43 258.927 135.373 260.375 135.644 260.287C135.916 260.199 136.887 258.134 137.802 255.699C138.718 253.263 140.381 249.31 141.497 246.914L143.526 242.558L142.196 246.392C137.1 261.092 137.038 261.361 138.589 262.236C139.401 262.694 140.854 263.771 141.818 264.631L143.572 266.193L145.571 262.851C146.671 261.013 147.244 260.356 146.842 261.39C144.673 266.987 144.921 267.662 149.552 268.746C150.931 269.069 151.402 268.756 151.968 267.142C152.354 266.039 153.763 262.864 155.099 260.088C157.506 255.087 157.504 255.107 154.891 262.263L152.254 269.485L155.103 271.368L157.953 273.251L160.391 268.39L162.828 263.531L161.059 268.492C159.476 272.933 159.448 273.568 160.787 274.536C163.575 276.55 164.223 275.918 166.297 269.165C167.349 265.738 169.388 260.497 170.827 257.517L173.445 252.099L170.708 259.724C169.203 263.918 167.482 269.446 166.884 272.007C165.727 276.962 166.181 277.723 170.911 278.766L172.662 279.151L172.363 276.506C171.722 270.839 175.004 260.286 181.53 247.032L185.593 238.78L161.781 225.108L137.969 211.436L131.735 223.289Z" fill="#B5B3A6"/>
<path fill-rule="evenodd" clip-rule="evenodd" d="M144.222 200.764L139.313 209.466C139.313 209.466 153.945 217.719 163.32 223.007C172.695 228.295 187.326 236.548 187.326 236.548L191.952 227.926L196.579 219.304L172.855 205.682L149.131 192.061L144.222 200.764Z" fill="#B5B3A6"/>
<path fill-rule="evenodd" clip-rule="evenodd" d="M131.71 223.353C124.217 237.6 122.2 244.301 124.067 248.738L125.194 251.417L125.827 249.319C127.327 244.346 127.927 243.362 127.071 247.282C125.978 252.275 126.142 253.705 127.545 251.425L128.557 249.78L128.017 251.767C127.551 253.485 127.999 254.215 131.302 257.133C133.404 258.992 135.347 260.44 135.619 260.351C135.89 260.263 136.862 258.198 137.777 255.763C138.693 253.328 140.355 249.375 141.471 246.978L143.5 242.622L142.171 246.456C137.074 261.156 137.012 261.425 138.563 262.3C139.375 262.758 140.828 263.835 141.793 264.695L143.546 266.257L145.546 262.915C146.646 261.077 147.218 260.42 146.817 261.454C144.648 267.052 144.896 267.726 149.526 268.81C150.906 269.134 151.376 268.821 151.942 267.206C152.329 266.103 153.738 262.929 155.074 260.152C157.481 255.151 157.479 255.171 154.866 262.327L152.228 269.55L155.078 271.432L157.927 273.315L160.365 268.455L162.803 263.595L161.034 268.557C159.45 272.997 159.025 274.032 160.365 275C163.637 277.365 164.198 275.982 166.271 269.229C167.323 265.803 169.362 260.561 170.802 257.581L173.42 252.163L170.683 259.788C169.178 263.982 167.457 269.51 166.858 272.071C165.701 277.026 166.155 277.788 170.885 278.83L172.636 279.215L172.337 276.57C171.696 270.903 174.979 260.35 181.504 247.096L185.568 238.844L161.755 225.172L137.943 211.5L131.71 223.353Z" fill="#8D7546"/>
<path fill-rule="evenodd" clip-rule="evenodd" d="M215.149 126C211.017 126.084 202.938 135.393 195.112 149.088C190.573 157.029 189.468 159.532 187.818 165.603C185.557 173.925 181.439 181.805 176.191 187.856C171.129 193.689 170.306 193.776 162.373 189.301C155.226 185.269 153.223 185.111 151.352 188.428L150.5 189.939L174.486 203.468C197.046 216.193 198.514 216.924 199.17 215.762C199.554 215.082 199.812 213.577 199.743 212.418C199.63 210.479 199.109 210.022 193.218 206.699C189.697 204.713 186.456 202.473 186.016 201.722C183.653 197.692 191.511 181.194 200.13 172.089C206.758 165.087 211.517 157.407 215.639 147.06C219.832 136.537 221.057 130.468 219.463 128.123C218.026 126.011 217.892 125.944 215.149 126ZM216.29 132.794C217.005 135.847 212.259 140.124 210.566 137.952C208.941 135.866 212.7 129.669 214.854 130.884C215.481 131.237 216.127 132.097 216.29 132.794Z" fill="#CB3F2D" stroke="#CB3F2D"/>
<path d="M197.562 81.9997L196 83.2497L199.438 87.101C199.582 87.2632 199.773 87.3953 199.995 87.4864C200.216 87.5775 200.462 87.625 200.711 87.6247H200.82C201.026 87.6246 201.229 87.6569 201.419 87.7197C201.609 87.7826 201.781 87.8748 201.927 87.991L206.106 91.3347L202.017 94.6522C201.318 94.4875 200.58 94.4555 199.862 94.5586C199.145 94.6617 198.467 94.8972 197.883 95.2464C197.299 95.5955 196.825 96.0487 196.498 96.5701C196.171 97.0914 196.001 97.6665 196 98.2497C196.001 98.7872 196.146 99.3181 196.426 99.8067C196.706 100.295 197.114 100.73 197.622 101.081C198.13 101.433 198.727 101.693 199.372 101.844C200.017 101.995 200.694 102.033 201.359 101.956C202.024 101.879 202.66 101.688 203.225 101.397C203.79 101.106 204.27 100.722 204.633 100.269C204.996 99.8171 205.233 99.3077 205.328 98.7757C205.423 98.2437 205.374 97.7016 205.184 97.186L209.331 93.9147L210.844 95.1247L210.367 96.2672C210.276 96.4875 210.262 96.7237 210.329 96.9496C210.396 97.1754 210.54 97.3819 210.745 97.546L215.989 101.741C216.282 101.975 216.679 102.107 217.094 102.107C217.508 102.107 217.905 101.975 218.198 101.741L220.677 99.7585C220.969 99.5241 221.134 99.2062 221.134 98.8747C221.134 98.5433 220.969 98.2254 220.677 97.991L215.433 93.796C215.228 93.6318 214.97 93.5166 214.687 93.4631C214.405 93.4097 214.11 93.4202 213.834 93.4935L212.406 93.8747L210.906 92.6747L215.094 89.371C215.788 89.5193 216.516 89.5381 217.222 89.4258C217.927 89.3134 218.59 89.0731 219.161 88.7232C219.732 88.3733 220.194 87.9232 220.513 87.4077C220.832 86.8922 220.998 86.3249 221 85.7497C221 85.4135 220.945 85.0872 220.841 84.7785L217.497 87.4547L214.75 86.9997L214.181 84.8035L217.527 82.1272C216.731 81.9561 215.893 81.9557 215.097 82.1263C214.301 82.2969 213.575 82.6323 212.993 83.0988C212.41 83.5652 211.992 84.1463 211.78 84.7833C211.568 85.4203 211.569 86.0908 211.784 86.7272L207.659 90.0747L203.489 86.741C203.196 86.5066 203.031 86.1887 203.031 85.8572V85.7685C203.031 85.5694 202.972 85.3733 202.858 85.1963C202.744 85.0193 202.579 84.8666 202.377 84.751L197.562 81.9997ZM212.634 95.3072C212.707 95.249 212.793 95.2029 212.888 95.1713C212.983 95.1398 213.085 95.1236 213.188 95.1236C213.29 95.1236 213.392 95.1398 213.487 95.1713C213.582 95.2029 213.668 95.249 213.741 95.3072L218.428 99.0572C218.501 99.1153 218.558 99.1843 218.598 99.2603C218.637 99.3362 218.657 99.4176 218.657 99.4997C218.657 99.5819 218.637 99.6633 218.598 99.7392C218.558 99.8151 218.501 99.8841 218.428 99.9422C218.355 100 218.269 100.046 218.174 100.078C218.079 100.109 217.978 100.126 217.875 100.126C217.772 100.126 217.671 100.109 217.576 100.078C217.481 100.046 217.395 100 217.322 99.9422L212.634 96.1922C212.562 96.1342 212.504 96.0652 212.465 95.9893C212.425 95.9133 212.405 95.8319 212.405 95.7497C212.405 95.6675 212.425 95.5861 212.465 95.5102C212.504 95.4343 212.562 95.3653 212.634 95.3072ZM200.688 95.7497L201.423 96.0522L202.25 96.0847L202.698 96.641L203.394 96.9997L203.434 97.661L203.812 98.2497L203.434 98.8385L203.394 99.4997L202.698 99.8585L202.25 100.415L201.423 100.447L200.688 100.75L199.952 100.447L199.125 100.415L198.677 99.8585L197.981 99.4997L197.941 98.8385L197.562 98.2497L197.941 97.661L197.981 96.9997L198.677 96.641L199.125 96.0847L199.952 96.0522L200.688 95.7497Z" fill="#F6E278"/>
</svg>
